P3
100 50
255
0 0 0 0 0 0 0 0 0 0 0 0 0 0 0 0 0 0 0 0 0 0 0 0 0 0 0 0 0 0 0 0 0 0 0
0 0 0 0 0 0 0 0 0 0 0 0 0 0 0 0 0 0 0 0 0 0 0 0 0 0 0 0 0 0 0 0 0 0 0 0 0 0 0 0 0 0 0 0 0 0 0 0 0 0 0 0 0 0 0 0 0 0 0 0 0 0 0 0 0 0 0 0 0 0 0 0 0 0 0 0 0 0 0 0 0 0 0 0 0 0 0 0 0 0 0 0 0 0 0 0 0 0 0 0 0 0 0 0 0 0 0 0 0 0 0 0 0 0 0 0 0 0 0 0 0 0 0 0 0 0 0 0 0 0 0 0 0 0 0 0 0 0 0 0 0 0 0 0 0 0 0 0 0 0 0 0 0 0 0 0 0 0 0 0 0 0 0 0 0 0 0 0 0 0 0 0 0 0 0 0 0 0 0 0 0 0 0 0 0 0 0 0 0 0 0 0 0 0 0 0 0 0 0 0 0 0 0 0 0 0 0 0 0 0 0 0 0 0 0 0 0 0 0 0 0 0 0 0 0 0 0 0 0 0 0 0 0 0 0 0 0 0 0 0 0 0 0 0 0 0 0 0 0 0 0 0 0 0 0 0 0 0 0 0 0 0 0 0 0
0 0 0 0 0 0 0 0 0 0 0 0 0 0 0 0 0 0 0 0 0 0 0 0 0 0 0 0 0 0 0 0 0 0 0
0 0 0 0 0 0 0 0 0 0 0 0 0 0 0 0 0 0 0 0 0 0 0 0 0 0 0 0 0 0 0 0 0 0 0 0 0 0 0 0 0 0 0 0 0 0 0 0 0 0 0 0 0 0 0 0 0 0 0 0 0 0 0 0 0 0 0 0 0 0 0 0 0 0 0 0 0 0 0 0 0 0 0 0 0 0 0 0 0 0 0 0 0 0 0 0 0 0 0 0 0 0 0 0 0 0 0 0 0 0 0 0 0 0 0 0 0 0 0 0 0 0 0 0 0 0 0 0 0 0 0 0 0 0 0 0 0 0 0 0 0 0 0 0 0 0 0 0 0 0 0 0 0 0 0 0 0 0 0 0 0 0 0 0 0 0 0 0 0 0 0 0 0 0 0 0 0 0 0 0 0 0 0 0 0 0 0 0 0 0 0 0 0 0 0 0 0 0 0 0 0 0 0 0 0 0 0 0 0 0 0 0 0 0 0 0 0 0 0 0 0 0 0 0 0 0 0 0 0 0 0 0 0 0 0 0 0 0 0 0 0 0 0 0 0 0 0 0 0 0 0 0 0 0 0 0 0 0 0 0 0 0 0 0 0
0 0 0 0 0 0 0 0 0 0 0 0 0 0 0 0 0 0 0 0 0 0 0 0 0 0 0 0 0 0 0 0 0 0 0
0 0 0 0 0 0 0 0 0 0 0 0 0 0 0 0 0 0 0 0 0 0 0 0 0 0 0 0 0 0 0 0 0 0 0 0 0 0 0 0 0 0 0 0 0 0 0 0 0 0 0 0 0 0 0 0 0 0 0 0 0 0 0 0 0 0 0 0 0 0 0 0 0 0 0 0 0 0 0 0 0 0 0 0 0 0 0 0 0 0 0 0 0 0 0 0 0 0 0 0 0 0 0 0 0 0 0 0 0 0 0 0 0 0 0 0 0 0 0 0 0 0 0 0 0 0 0 0 0 0 0 0 0 0 0 0 0 0 0 0 0 0 0 0 0 0 0 0 0 0 0 0 0 0 0 0 0 0 0 0 0 0 0 0 0 0 0 0 0 0 0 0 0 0 0 0 0 0 0 0 0 0 0 0 0 0 0 0 0 0 0 0 0 0 0 0 0 0 0 0 0 0 0 0 0 0 0 0 0 0 0 0 0 0 0 0 0 0 0 0 0 0 0 0 0 0 0 0 0 0 0 0 0 0 0 0 0 0 0 0 0 0 0 0 0 0 0 0 0 0 0 0 0 0 0 0 0 0 0 0 0 0 0 0 0
0 0 0 0 0 0 0 0 0 0 0 0 0 0 0 0 0 0 0 0 0 0 0 0 0 0 0 0 0 0 0 0 0 0 0
0 0 0 0 0 0 0 0 0 0 0 0 0 0 0 0 0 0 0 0 0 0 0 0 0 0 0 0 0 0 0 0 0 0 0 0 0 0 0 0 0 0 0 0 0 0 0 0 0 0 0 0 0 0 0 0 0 0 0 0 0 0 0 0 0 0 0 0 0 0 0 0 0 0 0 0 0 0 0 0 0 0 0 0 0 0 0 0 0 0 0 0 0 0 0 0 0 0 0 0 0 0 0 0 0 0 0 0 0 0 0 0 0 0 0 0 0 0 0 0 0 0 0 0 0 0 0 0 0 0 0 0 0 0 0 0 0 0 0 0 0 0 0 0 0 0 0 0 0 0 0 0 0 0 0 0 0 0 0 0 0 0 0 0 0 0 0 0 0 0 0 0 0 0 0 0 0 0 0 0 0 0 0 0 0 0 0 0 0 0 0 0 0 0 0 0 0 0 0 0 0 0 0 0 0 0 0 0 0 0 0 0 0 0 0 0 0 0 0 0 0 0 0 0 0 0 0 0 0 0 0 0 0 0 0 0 0 0 0 0 0 0 0 0 0 0 0 0 0 0 0 0 0 0 0 0 0 0 0 0 0 0 0 0 0
0 0 0 0 0 0 0 0 0 0 0 0 0 0 0 0 0 0 0 0 0 0 0 0 0 0 0 0 0 0 0 0 0 0 0
0 0 0 0 0 0 0 0 0 0 0 0 0 0 0 0 0 0 0 0 0 0 0 0 0 0 0 0 0 0 0 0 0 0 0 0 0 0 0 0 0 0 0 0 0 0 0 0 0 0 0 0 0 0 0 0 0 0 0 0 0 0 0 0 0 0 0 0 0 0 0 0 0 0 0 0 0 0 0 0 0 0 0 0 0 0 0 0 0 0 0 0 0 0 0 0 0 0 0 0 0 0 0 0 0 0 0 0 0 0 0 0 0 0 0 0 0 0 0 0 0 0 0 0 0 0 0 0 0 0 0 0 0 0 0 0 0 0 0 0 0 0 0 0 0 0 0 0 0 0 0 0 0 0 0 0 0 0 0 0 0 0 0 0 0 0 0 0 0 0 0 0 0 0 0 0 0 0 0 0 0 0 0 0 0 0 0 0 0 0 0 0 0 0 0 0 0 0 0 0 0 0 0 0 0 0 0 0 0 0 0 0 0 0 0 0 0 0 0 0 0 0 0 0 0 0 0 0 0 0 0 0 0 0 0 0 0 0 0 0 0 0 0 0 0 0 0 0 0 0 0 0 0 0 0 0 0 0 0 0 0 0 0 0 0
0 0 0 0 0 0 0 0 0 0 0 0 0 0 0 0 0 0 0 0 0 0 0 0 0 0 0 0 0 0 0 0 0 0 0
0 0 0 0 0 0 0 0 0 0 0 0 0 0 0 0 0 0 0 0 0 0 0 0 0 0 0 0 0 0 0 0 0 0 0 0 0 0 0 0 0 0 0 0 0 0 0 0 0 0 0 0 0 0 0 0 0 0 0 0 0 0 0 0 0 0 0 0 0 0 0 0 0 0 0 0 0 0 0 0 0 0 0 0 0 0 0 0 0 0 0 0 0 0 0 0 0 0 0 0 0 0 0 0 0 0 0 0 0 0 0 0 0 0 0 0 0 0 0 0 0 0 0 0 0 0 0 0 0 0 0 0 0 0 0 0 0 0 0 0 0 0 0 0 0 0 0 0 0 0 0 0 0 0 0 0 0 0 0 0 0 0 0 0 0 0 0 0 0 0 0 0 0 0 0 0 0 0 0 0 0 0 0 0 0 0 0 0 0 0 0 0 0 0 0 0 0 0 0 0 0 0 0 0 0 0 0 0 0 0 0 0 0 0 0 0 0 0 0 0 0 0 0 0 0 0 0 0 0 0 0 0 0 0 0 0 0 0 0 0 0 0 0 0 0 0 0 0 0 0 0 0 0 0 0 0 0 0 0 0 0 0 0 0 0
0 0 0 0 0 0 0 0 0 0 0 0 0 0 0 0 0 0 0 0 0 0 0 0 0 0 0 0 0 0 0 0 0 0 0
0 0 0 0 0 0 0 0 0 0 0 0 0 0 0 0 0 0 0 0 0 0 0 0 0 0 0 0 0 0 0 0 0 0 0 0 0 0 0 0 0 0 0 0 0 0 0 0 0 0 0 0 0 0 0 0 0 0 0 0 0 0 0 0 0 0 0 0 0 0 0 0 0 0 0 0 0 0 0 0 0 0 0 0 0 0 0 0 0 0 0 0 0 0 0 0 0 0 0 0 0 0 0 0 0 0 0 0 0 0 0 0 0 0 0 0 0 0 0 0 0 0 0 0 0 0 0 0 0 0 0 0 0 0 0 0 0 0 0 0 0 0 0 0 0 0 0 0 0 0 0 0 0 0 0 0 0 0 0 0 0 0 0 0 0 0 0 0 0 0 0 0 0 0 0 0 0 0 0 0 0 0 0 0 0 0 0 0 0 0 0 0 0 0 0 0 0 0 0 0 0 0 0 0 0 0 0 0 0 0 0 0 0 0 0 0 0 0 0 0 0 0 0 0 0 0 0 0 0 0 0 0 0 0 0 0 0 0 0 0 0 0 0 0 0 0 0 0 0 0 0 0 0 0 0 0 0 0 0 0 0 0 0 0 0
0 0 0 0 0 0 0 0 0 0 0 0 0 0 0 0 0 0 0 0 0 0 0 0 0 0 0 0 0 0 0 0 0 0 0
0 0 0 0 0 0 0 0 0 0 0 0 0 0 0 0 0 0 0 0 0 0 0 0 0 0 0 0 0 0 0 0 0 0 0 0 0 0 0 0 0 0 0 0 0 0 0 0 0 0 0 0 0 0 0 0 0 0 0 0 0 0 0 0 0 0 0 0 0 0 0 0 0 0 0 0 0 0 0 0 0 0 0 0 0 0 0 0 0 0 0 0 0 0 0 0 0 0 0 0 0 0 0 0 0 0 0 0 0 0 0 0 0 0 0 0 0 0 0 0 0 0 0 0 0 0 0 0 0 0 0 0 0 0 0 0 0 0 0 0 0 0 0 0 0 0 0 0 0 0 0 0 0 0 0 0 0 0 0 0 0 0 0 0 0 0 0 0 0 0 0 0 0 0 0 0 0 0 0 0 0 0 0 0 0 0 0 0 0 0 0 0 0 0 0 0 0 0 0 0 0 0 0 0 0 0 0 0 0 0 0 0 0 0 0 0 0 0 0 0 0 0 0 0 0 0 0 0 0 0 0 0 0 0 0 0 0 0 0 0 0 0 0 0 0 0 0 0 0 0 0 0 0 0 0 0 0 0 0 0 0 0 0 0 0
0 0 0 0 0 0 0 0 0 0 0 0 0 0 0 0 0 0 0 0 0 0 0 0 0 0 0 0 0 0 0 0 0 0 0
0 0 0 0 0 0 0 0 0 0 0 0 0 0 0 0 0 0 0 0 0 0 0 0 0 0 0 0 0 0 0 0 0 0 0 0 0 0 0 0 0 0 0 0 0 0 0 0 0 0 0 0 0 0 0 0 0 0 0 0 0 0 0 0 0 0 0 0 0 0 0 0 0 0 0 0 0 0 0 0 0 0 0 0 0 144 0 144 140 0 140 132 0 132 122 0 122 0 0 0 0 0 0 0 0 0 0 0 0 0 0 0 0 0 0 0 0 0 0 0 0 0 0 0 0 0 0 0 0 0 0 0 0 0 0 0 0 0 0 0 0 0 0 0 0 0 0 0 0 0 0 0 0 0 0 0 0 0 0 0 0 0 0 0 0 0 0 0 0 0 0 0 0 0 0 0 0 0 0 0 0 0 0 0 0 0 0 0 0 0 0 0 0 0 0 0 0 0 0 0 0 0 0 0 0 0 0 0 0 0 0 0 0 0 0 0 0 0 0 0 0 0 0 0 0 0 0 0 0 0 0 0 0 0 0 0 0 0 0 0 0 0 0 0 0 0 0 0 0 0 0 0 0 0 0 0 0 0 0 0 0 0 0 0 0
0 0 0 0 0 0 0 0 0 0 0 0 0 0 0 0 0 0 0 0 0 0 0 0 0 0 0 0 0 0 0 0 0 0 0
0 0 0 0 0 0 0 0 0 0 0 0 0 0 0 0 0 0 0 0 0 0 0 0 0 0 0 0 0 0 0 0 0 0 0 0 0 0 0 0 0 0 0 0 0 0 0 0 0 0 0 0 0 0 0 0 0 0 0 0 0 0 0 0 0 0 0 0 0 0 0 0 0 172 172 172 173 173 173 170 170 170 166 166 166 161 161 161 155 155 155 148 148 148 140 140 140 131 131 131 121 121 121 108 108 108 91 91 91 0 0 0 0 0 0 0 0 0 0 0 0 0 0 0 0 0 0 0 0 0 0 0 0 0 0 0 0 0 0 0 0 0 0 0 0 0 0 0 0 0 0 0 0 0 0 0 0 0 0 0 0 0 0 0 0 0 0 0 0 0 0 0 0 0 0 0 0 0 0 0 0 0 0 0 0 0 0 0 0 0 0 0 0 0 0 0 0 0 0 0 0 0 0 0 0 0 0 0 0 0 0 0 0 0 0 0 0 0 0 0 0 0 0 0 0 0 0 0 0 0 0 0 0 0 0 0 0 0 0 0 0 0 0 0 0 0 0 0 0 0 0 0 0 0 0 0 0 0 0 0 0 0 0 0 0
0 0 0 0 0 0 0 0 0 0 0 0 0 0 0 0 0 0 0 0 0 0 0 0 0 0 0 0 0 0 0 0 0 0 0
0 0 0 0 0 0 0 0 0 0 0 0 0 0 0 0 0 0 0 0 0 0 0 0 0 0 0 0 0 0 0 0 0 0 0 0 0 0 0 0 0 0 0 0 0 0 0 0 0 0 0 0 0 0 0 0 0 0 0 0 0 0 0 0 0 0 0 183 0 183 186 0 186 184 0 184 182 0 182 178 0 178 173 0 173 167 0 167 161 0 161 154 0 154 147 0 147 138 0 138 129 0 129 119 0 119 107 0 107 94 0 94 75 0 75 0 0 0 0 0 0 0 0 0 0 0 0 0 0 0 0 0 0 0 0 0 0 0 0 0 0 0 0 0 0 0 0 0 0 0 0 0 0 0 0 0 0 0 0 0 0 0 0 0 0 0 0 0 0 0 0 0 0 0 0 0 0 0 0 0 0 0 0 0 0 0 0 0 0 0 0 0 0 0 0 0 0 0 0 0 0 0 0 0 0 0 0 0 0 0 0 0 0 0 0 0 0 0 0 0 0 0 0 0 0 0 0 0 0 0 0 0 0 0 0 0 0 0 0 0 0 0 0 0 0 0 0 0 0 0 0 0 0 0 0 0 0 0 0 0 0 0 0 0 0
0 0 0 0 0 0 0 0 0 0 0 0 0 0 0 0 0 0 0 0 0 0 0 0 0 0 0 0 0 0 0 0 0 0 0
0 0 0 0 0 0 0 0 0 0 0 0 0 0 0 0 0 0 0 0 0 0 0 0 0 0 0 0 0 0 0 0 0 0 0 0 0 0 0 0 0 0 0 0 0 0 0 0 0 0 0 0 0 0 0 0 0 0 0 0 0 184 0 184 192 0 192 193 0 193 192 0 192 189 0 189 185 0 185 181 0 181 176 0 176 170 0 170 164 0 164 157 0 157 150 0 150 142 0 142 133 0 133 124 0 124 114 0 114 102 0 102 89 0 89 72 0 72 0 0 0 0 0 0 0 0 0 0 0 0 0 0 0 0 0 0 0 0 0 0 0 0 0 0 0 0 0 0 0 0 0 0 0 0 0 0 0 0 0 0 0 0 0 0 0 0 0 0 0 0 0 0 0 0 0 0 0 0 0 0 0 0 0 0 0 0 0 0 0 0 0 0 0 0 0 0 0 0 0 0 0 0 0 0 0 0 0 0 0 0 0 0 0 0 0 0 0 0 0 0 0 0 0 0 0 0 0 0 0 0 0 0 0 0 0 0 0 0 0 0 0 0 0 0 0 0 0 0 0 0 0 0 0 0 0 0 0 0 0 0 0 0 0 0 0
0 0 0 0 0 0 0 0 0 0 0 0 0 0 0 0 0 0 0 0 0 0 0 0 0 0 0 0 0 0 0 0 0 0 0
0 0 0 0 0 0 0 0 0 0 0 0 0 0 0 0 0 0 0 0 0 0 0 0 0 0 0 0 0 0 0 0 0 0 0 0 0 0 0 0 0 0 0 0 0 0 0 0 0 0 0 0 0 0 0 0 0 0 191 0 191 198 0 198 198 0 198 197 0 197 195 0 195 191 0 191 187 0 187 182 0 182 177 0 177 171 0 171 165 0 165 158 0 158 151 0 151 143 0 143 135 0 135 126 0 126 117 0 117 106 0 106 95 0 95 81 0 81 65 0 65 39 0 39 0 0 0 0 0 0 0 0 0 0 0 0 0 0 0 0 0 0 0 0 0 0 0 0 0 0 0 0 0 0 0 0 0 0 0 0 0 0 0 0 0 0 0 0 0 0 0 0 0 0 0 0 0 0 0 0 0 0 0 0 0 0 0 0 0 0 0 0 0 0 0 0 0 0 0 0 0 0 0 0 0 0 0 0 0 0 0 0 0 0 0 0 0 0 0 0 0 0 0 0 0 0 0 0 0 0 0 0 0 0 0 0 0 0 0 0 0 0 0 0 0 0 0 0 0 0 0 0 0 0 0 0 0 0 0 0 0 0 0 0 0
0 0 0 0 0 0 0 0 0 0 0 0 0 0 0 0 0 0 0 0 0 0 0 0 0 0 0 0 0 0 0 0 0 0 0
0 0 0 0 0 0 0 0 0 0 0 0 0 0 0 0 0 0 0 0 0 0 0 0 0 0 0 0 0 0 0 0 0 0 0 0 0 0 0 0 0 0 0 0 0 0 0 0 0 0 0 0 0 0 0 194 0 194 201 0 201 202 0 202 201 201 201 199 199 199 195 195 195 192 192 192 187 187 187 182 182 182 177 177 177 171 171 171 165 165 165 158 158 158 151 151 151 144 144 144 136 136 136 127 127 127 118 118 118 108 108 108 97 0 97 85 0 85 71 0 71 54 0 54 27 0 27 0 0 0 0 0 0 0 0 0 0 0 0 0 0 0 0 0 0 0 0 0 0 0 0 0 0 0 0 0 0 0 0 0 0 0 0 0 0 0 0 0 0 0 0 0 0 0 0 0 0 0 0 0 0 0 0 0 0 0 0 0 0 0 0 0 0 0 0 0 0 0 0 0 0 0 0 0 0 0 0 0 0 0 0 0 0 0 0 0 0 0 0 0 0 0 0 0 0 0 0 0 0 0 0 0 0 0 0 0 0 0 0 0 0 0 0 0 0 0 0 0 0 0 0 0 0 0 0 0 0 0 0 0 0 0 0 0 0
0 0 0 0 0 0 0 0 0 0 0 0 0 0 0 0 0 0 0 0 0 0 0 0 0 0 0 0 0 0 0 0 0 0 0
0 0 0 0 0 0 0 0 0 0 0 0 0 0 0 0 0 0 0 0 0 0 0 0 0 0 0 0 0 0 0 0 0 0 0 0 0 0 0 0 0 0 0 0 0 0 0 0 0 0 0 0 192 192 192 201 201 201 204 204 204 203 203 203 201 201 201 199 199 199 195 195 195 191 191 191 187 187 187 182 182 182 176 176 176 170 170 170 164 164 164 158 158 158 151 151 151 143 143 143 136 136 136 127 127 127 118 118 118 109 109 109 98 98 98 87 87 87 74 74 74 60 60 60 41 41 41 25 25 25 0 0 0 0 0 0 0 0 0 0 0 0 0 0 0 0 0 0 0 0 0 0 0 0 0 0 0 0 0 0 0 0 0 0 0 0 0 0 0 0 0 0 0 0 0 0 0 0 0 0 0 0 0 0 0 0 0 0 0 0 0 0 0 0 0 0 0 0 0 0 0 0 0 0 0 0 0 0 0 0 0 0 0 0 0 0 0 0 0 0 0 0 0 0 0 0 0 0 0 0 0 0 0 0 0 0 0 0 0 0 0 0 0 0 0 0 0 0 0 0 0 0 0 0 0 0 0 0 0 0 0 0 0 0 0
0 0 0 0 0 0 0 0 0 0 0 0 0 0 0 0 0 0 0 0 0 0 0 0 0 0 0 0 0 0 0 0 0 0 0
0 0 0 0 0 0 0 0 0 0 0 0 0 0 0 0 0 0 0 0 0 0 0 0 0 0 0 0 0 0 0 0 0 0 0 0 0 0 0 0 0 0 0 0 0 0 0 0 0 0 0 0 200 200 200 204 204 204 204 204 204 203 203 203 201 201 201 198 198 198 194 194 194 190 190 190 185 185 185 180 180 180 175 175 175 169 169 169 163 163 163 156 156 156 149 149 149 142 142 142 135 135 135 126 126 126 118 118 118 108 108 108 99 99 99 88 88 88 76 76 76 62 62 62 46 46 46 26 26 26 0 0 0 0 0 0 0 0 0 0 0 0 0 0 0 0 0 0 0 0 0 0 0 0 0 0 0 0 0 0 0 0 0 0 0 0 0 0 0 0 0 0 0 0 0 0 0 0 0 0 0 0 0 0 0 0 0 0 0 0 0 0 0 0 0 0 0 0 0 0 0 0 0 0 0 0 0 0 0 0 0 0 0 0 0 0 0 0 0 0 0 0 0 0 0 0 0 0 0 0 0 0 0 0 0 0 0 0 0 0 0 0 0 0 0 0 0 0 0 0 0 0 0 0 0 0 0 0 0 0 0 0 0 0 0
27 0 0 0 0 27 27 0 0 27 0 0 0 0 27 27 0 0 27 0 0 0 0 27 27 0 0 0 0 27
0 0 27 27 0 0 0 0 27 0 0 27 27 0 0 0 0 27 27 0 0 27 0 0 0 0 27 27 0 0 27 0 0 0 0 27 27 0 0 0 0 27 0 0 27 27 0 0 0 0 27 0 0 27 196 196 196 202 202 202 204 204 204 204 204 204 202 202 202 199 199 199 196 196 196 192 192 192 188 188 188 183 183 183 178 178 178 173 173 173 167 167 167 161 161 161 154 154 154 148 148 148 140 140 140 133 133 133 125 125 125 116 116 116 107 107 107 98 98 98 87 87 87 76 76 76 63 63 63 49 49 49 31 31 31 25 25 25 27 0 0 0 0 27 27 0 0 27 0 0 0 0 27 27 0 0 27 0 0 0 0 27 27 0 0 0 0 27 0 0 27 27 0 0 0 0 27 0 0 27 27 0 0 0 0 27 27 0 0 27 0 0 0 0 27 27 0 0 27 0 0 0 0 27 27 0 0 0 0 27 0 0 27 27 0 0 0 0 27 0 0 27 27 0 0 0 0 27 27 0 0 27 0 0 0 0 27 27 0 0 27 0 0 0 0 27 27 0 0 0 0 27 0 0 27 27 0 0 0 0 27 0 0 27 27 0 0 0 0 27
0 0 42 0 0 42 0 0 42 0 0 42 0 0 42 0 0 43 43 0 0 43 0 0 43 0 0 43 0 0
43 0 0 43 0 0 43 0 0 0 0 43 0 0 43 0 0 43 0 0 43 0 0 43 0 0 43 0 0 43 43 0 0 43 0 0 44 0 0 44 0 0 44 0 0 44 0 0 44 0 0 181 181 181 199 199 199 202 202 202 203 203 203 202 202 202 200 200 200 197 197 197 194 194 194 190 190 190 186 186 186 181 181 181 176 176 176 170 170 170 165 165 165 159 159 159 152 152 152 145 145 145 138 138 138 131 131 131 123 123 123 115 115 115 106 106 106 96 96 96 86 86 86 75 75 75 63 63 63 49 49 49 33 33 33 25 25 25 44 0 0 0 0 44 0 0 44 0 0 44 0 0 44 0 0 44 0 0 44 0 0 43 0 0 43 43 0 0 43 0 0 43 0 0 43 0 0 43 0 0 43 0 0 43 0 0 0 0 43 0 0 43 0 0 43 0 0 43 0 0 43 0 0 43 0 0 43 0 0 43 43 0 0 42 0 0 42 0 0 42 0 0 42 0 0 42 0 0 42 0 0 0 0 42 0 0 42 0 0 42 0 0 42 0 0 42 0 0 42 0 0 42 41 0 0 41 0 0 41 0 0 41 0 0 41 0 0 41 0 0
57 0 0 57 0 0 57 0 0 57 0 0 58 0 0 58 0 0 58 0 0 58 0 0 0 0 58 0 0 58
0 0 58 0 0 58 0 0 58 0 0 58 0 0 59 0 0 59 0 0 59 0 0 59 0 0 59 0 0 59 0 0 59 0 0 59 59 0 0 59 0 0 59 0 0 59 0 0 59 0 0 191 191 191 199 199 199 201 201 201 201 201 201 200 200 200 197 197 197 194 194 194 191 191 191 194 194 194 199 199 199 180 180 180 173 173 173 167 167 167 162 162 162 156 156 156 149 149 149 143 143 143 136 136 136 128 128 128 120 120 120 112 112 112 103 103 103 94 94 94 84 84 84 73 73 73 62 62 62 48 48 48 33 33 33 25 25 25 25 25 25 58 0 0 58 0 0 58 0 0 58 0 0 58 0 0 58 0 0 58 0 0 0 0 58 0 0 58 0 0 58 0 0 58 0 0 57 0 0 57 0 0 57 0 0 57 0 0 57 0 0 57 0 0 57 0 0 57 0 0 57 0 0 56 56 0 0 56 0 0 56 0 0 56 0 0 56 0 0 56 0 0 56 0 0 55 0 0 55 0 0 55 0 0 55 0 0 55 0 0 55 0 0 55 0 0 0 0 54 0 0 54 0 0 54 0 0 54 0 0 54 0 0 54 0 0 54 0 0 54
0 0 71 0 0 72 0 0 72 0 0 72 0 0 72 0 0 72 0 0 72 0 0 72 0 0 72 72 0 0
72 0 0 73 0 0 73 0 0 73 0 0 73 0 0 73 0 0 73 0 0 73 0 0 73 0 0 73 0 0 73 0 0 73 0 0 73 0 0 73 0 0 73 0 0 73 0 0 73 0 0 192 192 192 197 197 197 199 199 199 198 198 198 197 197 197 194 194 194 191 191 191 189 189 189 231 231 231 236 236 236 178 178 178 170 170 170 164 164 164 159 159 159 153 153 153 146 146 146 140 140 140 133 133 133 125 125 125 117 117 117 109 109 109 101 101 101 91 91 91 82 82 82 71 71 71 60 60 60 47 47 47 32 32 32 25 25 25 25 25 25 71 0 0 71 0 0 71 0 0 71 0 0 71 0 0 71 0 0 71 0 0 71 0 0 70 0 0 70 0 0 70 0 0 70 0 0 70 0 0 70 0 0 0 0 69 0 0 69 0 0 69 0 0 69 0 0 69 0 0 69 0 0 68 0 0 68 0 0 68 0 0 68 0 0 68 0 0 68 0 0 67 0 0 67 0 0 67 0 0 67 0 0 67 0 0 66 0 0 66 0 0 66 66 0 0 66 0 0 66 0 0 65 0 0 65 0 0 65 0 0 65 0 0 65 0 0 64 0 0
85 0 0 85 0 0 85 0 0 85 0 0 85 0 0 85 0 0 85 0 0 85 0 0 85 0 0 85 0 0
85 0 0 86 0 0 86 0 0 86 0 0 86 0 0 86 0 0 86 0 0 86 0 0 86 0 0 86 0 0 86 0 0 86 0 0 86 0 0 0 0 86 0 0 86 0 0 86 175 175 175 191 191 191 195 195 195 196 196 196 195 195 195 193 193 193 191 191 191 188 188 188 185 185 185 199 199 199 188 188 188 172 172 172 166 166 166 161 161 161 155 155 155 149 149 149 143 143 143 136 136 136 129 129 129 122 122 122 114 114 114 106 106 106 97 97 97 88 88 88 79 79 79 68 68 68 57 57 57 44 44 44 30 30 30 25 25 25 25 25 25 83 0 0 83 0 0 82 0 0 82 0 0 82 0 0 82 0 0 82 0 0 81 0 0 81 0 0 81 0 0 81 0 0 81 0 0 80 0 0 80 0 0 80 0 0 80 0 0 80 0 0 79 0 0 79 0 0 79 0 0 0 0 79 0 0 79 0 0 78 0 0 78 0 0 78 0 0 78 0 0 78 0 0 77 0 0 77 0 0 77 0 0 77 0 0 76 0 0 76 0 0 76 0 0 76 0 0 75 0 0 75 0 0 75 0 0 75 0 0 75 0 0 74 0 0 74 0 0 74
96 0 0 97 0 0 97 0 0 97 0 0 97 0 0 97 0 0 97 0 0 97 0 0 97 0 0 97 0 0
97 0 0 97 0 0 97 0 0 97 0 0 97 0 0 97 0 0 0 0 97 0 0 97 0 0 97 0 0 97 0 0 97 0 0 97 0 0 97 0 0 97 0 0 97 0 0 97 178 178 178 189 189 189 192 192 192 192 192 192 191 191 191 190 190 190 187 187 187 184 184 184 180 180 180 177 177 177 172 172 172 167 167 167 162 162 162 157 157 157 151 151 151 145 145 145 139 139 139 132 132 132 125 125 125 118 118 118 110 110 110 102 102 102 94 94 94 85 85 85 75 75 75 65 65 65 54 54 54 41 41 41 28 28 28 25 25 25 25 25 25 25 25 25 92 0 0 92 0 0 92 0 0 92 0 0 91 0 0 91 0 0 91 0 0 91 0 0 90 0 0 90 0 0 90 0 0 90 0 0 90 0 0 89 0 0 89 0 0 89 0 0 89 0 0 88 0 0 88 0 0 88 0 0 88 0 0 87 0 0 87 0 0 87 0 0 87 0 0 86 0 0 0 0 86 0 0 86 0 0 86 0 0 85 0 0 85 0 0 85 0 0 85 0 0 84 0 0 84 0 0 84 0 0 84 0 0 83 0 0 83 0 0 83 0 0 82 0 0 82
107 0 0 107 0 0 107 0 0 107 0 0 107 0 0 107 0 0 107 0 0 107 0 0 107 0
0 0 0 107 0 0 107 0 0 107 0 0 107 0 0 107 0 0 107 0 0 107 0 0 107 0 0 107 0 0 107 0 0 107 0 0 107 0 0 107 0 0 107 0 0 107 0 0 107 0 0 106 176 176 176 185 185 185 188 188 188 188 188 188 187 187 187 185 185 185 183 183 183 180 180 180 176 176 176 172 172 172 168 168 168 163 163 163 158 158 158 153 153 153 147 147 147 141 141 141 135 135 135 128 128 128 121 121 121 114 114 114 106 106 106 98 98 98 90 90 90 81 81 81 71 71 71 61 61 61 50 50 50 38 38 38 25 25 25 25 25 25 25 25 25 25 25 25 101 0 0 100 0 0 100 0 0 100 0 0 100 0 0 99 0 0 99 0 0 99 0 0 99 0 0 98 0 0 98 0 0 98 0 0 98 0 0 97 0 0 97 0 0 97 0 0 96 0 0 96 0 0 96 0 0 96 0 0 95 0 0 95 0 0 95 0 0 95 0 0 94 0 0 94 0 0 94 0 0 93 0 0 93 0 0 93 0 0 93 0 0 92 0 0 92 0 0 0 0 92 0 0 91 0 0 91 0 0 91 0 0 91 0 0 90 0 0 90 0 0 90 0 0 90
116 0 0 116 0 0 116 0 0 0 0 116 0 0 116 0 0 116 0 0 116 0 0 116 0 0
116 0 0 116 0 0 116 0 0 116 0 0 116 0 0 116 0 0 116 0 0 116 0 0 116 0 0 116 0 0 116 0 0 115 0 0 115 0 0 115 0 0 115 0 0 115 0 0 115 0 0 115 172 172 172 180 180 180 183 183 183 184 184 184 183 183 183 181 181 181 178 178 178 175 175 175 172 172 172 168 168 168 163 163 163 159 159 159 153 153 153 148 148 148 143 143 143 137 137 137 130 130 130 124 124 124 117 117 117 110 110 110 102 102 102 94 94 94 86 86 86 77 77 77 67 67 67 57 57 57 46 46 46 34 34 34 25 25 25 25 25 25 25 25 25 25 25 25 108 0 0 107 0 0 107 0 0 107 0 0 107 0 0 106 0 0 106 0 0 106 0 0 106 0 0 105 0 0 105 0 0 105 0 0 104 0 0 104 0 0 104 0 0 104 0 0 103 0 0 103 0 0 103 0 0 102 0 0 102 0 0 102 0 0 102 0 0 101 0 0 101 0 0 101 0 0 100 0 0 100 0 0 100 0 0 99 0 0 99 0 0 99 0 0 99 0 0 98 0 0 98 0 0 98 0 0 97 0 0 97 0 0 97 0 0 0 0 97 0 0 96 0 0 96
0 0 124 0 0 124 0 0 124 0 0 124 0 0 124 0 0 124 0 0 124 0 0 124 0 0
124 0 0 124 0 0 124 0 0 124 0 0 124 0 0 123 0 0 123 0 0 123 0 0 123 0 0 123 0 0 123 0 0 123 0 0 123 0 0 122 0 0 122 0 0 122 0 0 122 0 0 122 167 167 167 175 175 175 178 178 178 178 178 178 178 178 178 176 176 176 173 173 173 170 170 170 167 167 167 163 163 163 158 158 158 154 154 154 149 149 149 143 143 143 138 138 138 132 132 132 126 126 126 119 119 119 112 112 112 105 105 105 97 97 97 89 89 89 81 81 81 72 72 72 62 62 62 52 52 52 41 41 41 29 29 29 25 25 25 25 25 25 25 25 25 25 25 25 114 0 0 114 0 0 113 0 0 113 0 0 113 0 0 113 0 0 112 0 0 112 0 0 112 0 0 111 0 0 111 0 0 111 0 0 110 0 0 110 0 0 110 0 0 110 0 0 109 0 0 109 0 0 109 0 0 108 0 0 108 0 0 108 0 0 107 0 0 107 0 0 107 0 0 106 0 0 106 0 0 106 0 0 106 0 0 105 0 0 105 0 0 105 0 0 104 0 0 104 0 0 104 0 0 103 0 0 103 0 0 103 0 0 103 0 0 102 0 0 102 0 0 102 0 0
0 0 131 0 0 131 0 0 131 0 0 131 0 0 131 0 0 131 0 0 131 0 0 131 0 0
131 0 0 130 0 0 130 0 0 130 0 0 130 0 0 130 0 0 130 0 0 130 0 0 129 0 0 129 0 0 129 0 0 129 0 0 129 0 0 129 0 0 128 0 0 128 0 0 128 0 0 128 160 160 160 169 169 169 172 172 172 173 173 173 172 172 172 170 170 170 168 168 168 165 165 165 161 161 161 157 157 157 153 153 153 149 149 149 144 144 144 138 138 138 133 133 133 127 127 127 121 121 121 114 114 114 107 107 107 100 100 100 92 92 92 84 84 84 76 76 76 67 67 67 57 57 57 47 47 47 36 36 36 25 25 25 25 25 25 25 25 25 25 25 25 25 25 25 119 0 0 119 0 0 119 0 0 118 0 0 118 0 0 118 0 0 118 0 0 117 0 0 117 0 0 117 0 0 116 0 0 116 0 0 116 0 0 115 0 0 115 0 0 115 0 0 114 0 0 114 0 0 114 0 0 114 0 0 113 0 0 113 0 0 113 0 0 112 0 0 112 0 0 112 0 0 111 0 0 111 0 0 111 0 0 110 0 0 110 0 0 110 0 0 109 0 0 109 0 0 109 0 0 109 0 0 108 0 0 108 0 0 108 0 0 107 0 0 107 0 0 107 0 0
0 0 137 0 0 137 0 0 137 0 0 137 0 0 137 0 0 137 0 0 137 0 0 136 0 0
136 0 0 136 0 0 136 0 0 136 0 0 136 0 0 135 0 0 135 0 0 135 0 0 135 0 0 135 0 0 135 0 0 134 0 0 134 0 0 134 0 0 134 0 0 133 0 0 133 0 0 133 152 152 152 162 162 162 166 166 166 167 167 167 166 166 166 164 164 164 162 162 162 159 159 159 156 156 156 152 152 152 148 148 148 143 143 143 138 138 138 133 133 133 127 127 127 121 121 121 115 115 115 109 109 109 102 102 102 95 95 95 87 87 87 79 79 79 70 70 70 61 61 61 52 52 52 42 42 42 30 30 30 25 25 25 25 25 25 25 25 25 25 25 25 25 25 25 124 0 0 124 0 0 123 0 0 123 0 0 123 0 0 123 0 0 122 0 0 122 0 0 122 0 0 121 0 0 121 0 0 121 0 0 120 0 0 120 0 0 120 0 0 119 0 0 119 0 0 77 154 15 79 158 15 77 155 15 74 148 14 68 137 13 60 121 12 46 93 9 116 0 0 116 0 0 116 0 0 116 0 0 115 0 0 115 0 0 115 0 0 114 0 0 114 0 0 114 0 0 113 0 0 113 0 0 113 0 0 112 0 0 112 0 0 112 0 0 111 0 0 111 0 0
0 0 142 0 0 142 0 0 142 0 0 142 0 0 142 0 0 142 0 0 141 0 0 141 0 0
141 0 0 141 0 0 141 0 0 141 0 0 140 0 0 140 0 0 140 0 0 140 0 0 140 0 0 139 0 0 139 0 0 139 0 0 139 0 0 138 0 0 138 0 0 138 0 0 138 0 0 138 140 140 140 154 154 154 159 159 159 160 160 160 160 160 160 158 158 158 156 156 156 153 153 153 150 150 150 146 146 146 142 142 142 137 137 137 132 132 132 127 127 127 121 121 121 116 116 116 109 109 109 103 103 103 96 96 96 89 89 89 81 81 81 73 73 73 65 65 65 56 56 56 46 46 46 35 35 35 25 25 25 25 25 25 25 25 25 25 25 25 25 25 25 25 25 25 128 0 0 128 0 0 128 0 0 127 0 0 127 0 0 127 0 0 126 0 0 126 0 0 126 0 0 125 0 0 125 0 0 125 0 0 124 0 0 124 0 0 124 0 0 86 172 17 90 180 18 91 182 18 89 179 17 87 174 17 83 167 16 79 158 15 72 145 14 65 130 13 55 110 11 39 78 7 120 0 0 120 0 0 119 0 0 119 0 0 119 0 0 118 0 0 118 0 0 118 0 0 117 0 0 117 0 0 117 0 0 116 0 0 116 0 0 116 0 0 115 0 0 115 0 0
0 0 147 0 0 147 0 0 146 0 0 146 0 0 146 0 0 146 0 0 146 0 0 145 0 0
145 0 0 145 0 0 145 0 0 145 0 0 144 0 0 144 0 0 144 0 0 144 0 0 144 0 0 143 0 0 143 0 0 143 0 0 143 0 0 142 0 0 142 0 0 142 0 0 142 0 0 141 0 0 141 145 145 145 151 151 151 152 152 152 152 152 152 151 151 151 149 149 149 147 147 147 143 143 143 140 140 140 135 135 135 131 131 131 126 126 126 121 121 121 115 115 115 110 110 110 103 103 103 97 97 97 90 90 90 83 83 83 75 75 75 67 67 67 58 58 58 49 49 49 39 39 39 29 29 29 25 25 25 25 25 25 25 25 25 25 25 25 25 25 25 132 0 0 132 0 0 131 0 0 131 0 0 131 0 0 131 0 0 130 0 0 130 0 0 130 0 0 129 0 0 129 0 0 129 0 0 128 0 0 128 0 0 156 151 15 91 183 18 95 191 19 97 194 19 96 193 19 95 190 19 92 184 18 88 177 17 84 168 16 78 156 15 71 143 14 63 127 12 53 107 10 39 79 7 123 0 0 123 0 0 123 0 0 122 0 0 122 0 0 122 0 0 121 0 0 121 0 0 121 0 0 120 0 0 120 0 0 120 0 0 119 0 0 119 0 0 119 0 0
0 0 150 0 0 150 0 0 150 0 0 150 0 0 150 0 0 150 0 0 149 0 0 149 0 0
149 0 0 149 0 0 148 0 0 148 0 0 148 0 0 148 0 0 148 0 0 147 0 0 147 0 0 147 0 0 147 0 0 146 0 0 146 0 0 146 0 0 146 0 0 145 0 0 145 0 0 145 0 0 144 134 134 134 142 142 142 144 144 144 145 145 145 144 144 144 142 142 142 140 140 140 136 136 136 133 133 133 129 129 129 124 124 124 120 120 120 114 114 114 109 109 109 103 103 103 97 97 97 90 90 90 83 83 83 76 76 76 68 68 68 60 60 60 52 52 52 42 42 42 32 32 32 25 25 25 25 25 25 25 25 25 25 25 25 25 25 25 25 25 25 135 0 0 135 0 0 135 0 0 134 0 0 134 0 0 134 0 0 133 0 0 133 0 0 133 0 0 132 0 0 132 0 0 132 0 0 131 0 0 131 0 0 92 185 18 98 196 19 100 200 20 100 201 20 99 199 19 97 195 19 94 189 18 91 182 18 86 173 17 81 162 16 75 150 15 67 135 13 59 118 11 48 97 9 33 67 6 126 0 0 126 0 0 125 0 0 125 0 0 125 0 0 125 0 0 124 0 0 124 0 0 124 0 0 123 0 0 123 0 0 123 0 0 122 0 0 122 0 0
0 0 154 0 0 153 0 0 153 0 0 153 0 0 153 0 0 153 0 0 152 0 0 152 0 0
152 0 0 152 0 0 152 0 0 151 0 0 151 0 0 151 0 0 151 0 0 150 0 0 150 0 0 150 0 0 150 0 0 149 0 0 149 0 0 149 0 0 148 0 0 148 0 0 148 0 0 148 0 0 147 118 118 118 131 131 131 135 135 135 136 136 136 136 136 136 134 134 134 132 132 132 129 129 129 126 126 126 122 122 122 117 117 117 113 113 113 107 107 107 102 102 102 96 96 96 90 90 90 83 83 83 76 76 76 69 69 69 61 61 61 53 53 53 44 44 44 35 35 35 25 25 25 25 25 25 25 25 25 25 25 25 25 25 25 25 25 25 25 25 25 138 0 0 138 0 0 138 0 0 137 0 0 137 0 0 137 0 0 136 0 0 136 0 0 136 0 0 135 0 0 135 0 0 135 0 0 134 0 0 89 179 17 123 220 45 179 201 98 102 204 20 101 203 20 100 201 20 98 196 19 95 191 19 91 183 18 87 175 17 82 165 16 76 153 15 69 139 13 62 124 12 52 105 10 40 81 8 23 46 4 129 0 0 128 0 0 128 0 0 128 0 0 127 0 0 127 0 0 127 0 0 126 0 0 126 0 0 126 0 0 126 0 0 125 0 0 125 0 0
0 0 156 0 0 156 0 0 156 0 0 156 0 0 156 0 0 155 0 0 155 0 0 155 0 0
155 0 0 154 0 0 154 0 0 154 0 0 154 0 0 153 0 0 153 0 0 153 0 0 153 0 0 152 0 0 152 0 0 152 0 0 152 0 0 151 0 0 151 0 0 151 0 0 151 0 0 150 0 0 150 0 0 150 118 118 118 125 125 125 127 127 127 127 127 127 126 126 126 124 124 124 121 121 121 118 118 118 114 114 114 110 110 110 105 105 105 100 100 100 95 95 95 89 89 89 83 83 83 76 76 76 69 69 69 62 62 62 54 54 54 45 45 45 36 36 36 27 27 27 25 25 25 25 25 25 25 25 25 25 25 25 25 25 25 25 25 25 141 0 0 141 0 0 140 0 0 140 0 0 140 0 0 139 0 0 25 0 0 25 0 0 25 0 0 25 0 0 25 0 0 25 0 0 25 0 0 78 157 113 119 213 44 124 223 45 226 255 144 102 204 20 101 203 20 100 200 20 98 196 19 95 190 19 91 183 18 87 174 17 82 165 16 76 153 15 70 140 14 63 126 12 54 108 10 43 87 8 29 59 5 139 25 2 131 0 0 131 0 0 130 0 0 130 0 0 130 0 0 129 0 0 129 0 0 129 0 0 129 0 0 128 0 0 128 0 0 128 0 0
0 0 159 0 0 159 0 0 158 0 0 158 0 0 158 0 0 158 0 0 157 0 0 157 0 0
157 0 0 157 0 0 156 0 0 156 0 0 156 0 0 156 0 0 155 0 0 155 0 0 155 0 0 155 0 0 154 0 0 154 0 0 154 0 0 154 0 0 153 0 0 153 0 0 153 0 0 152 0 0 152 0 0 152 98 98 98 112 112 112 116 116 116 117 117 117 117 117 117 115 115 115 113 113 113 109 109 109 106 106 106 102 102 102 97 97 97 92 92 92 87 87 87 81 81 81 75 75 75 68 68 68 61 61 61 53 53 53 45 45 45 37 37 37 28 28 28 25 25 25 25 25 25 25 25 25 25 25 25 25 25 25 25 25 25 25 25 25 25 0 0 25 0 0 25 0 0 25 0 0 25 0 0 25 0 0 25 0 0 25 0 0 25 0 0 25 0 0 25 0 0 25 0 0 25 0 0 84 169 16 120 214 44 137 236 58 100 201 20 101 202 20 100 201 20 105 204 25 100 197 22 94 188 18 90 181 18 86 172 17 81 163 16 76 152 15 69 139 13 62 125 12 54 108 10 44 89 8 32 64 6 14 28 2 133 0 0 133 0 0 133 0 0 132 0 0 132 0 0 132 0 0 132 0 0 131 0 0 131 0 0 131 0 0 130 0 0 130 0 0
0 0 161 0 0 161 0 0 161 0 0 160 0 0 160 0 0 160 0 0 160 0 0 159 0 0
159 0 0 159 0 0 159 0 0 158 0 0 158 0 0 158 0 0 157 0 0 157 0 0 157 0 0 157 157 126 15 149 119 14 132 106 13 110 88 11 78 62 7 0 0 155 0 0 155 0 0 154 0 0 154 0 0 154 0 0 154 95 95 95 103 103 103 106 106 106 106 106 106 105 105 105 103 103 103 100 100 100 97 97 97 93 93 93 88 88 88 83 83 83 78 78 78 72 72 72 66 66 66 59 59 59 52 52 52 45 45 45 37 37 37 28 28 28 25 25 25 25 25 25 25 25 25 25 25 25 25 25 25 25 25 25 25 25 25 25 0 0 25 0 0 25 0 0 25 0 0 25 0 0 25 0 0 25 0 0 25 0 0 25 0 0 25 0 0 25 0 0 25 0 0 25 0 0 25 0 0 111 196 42 119 212 44 151 248 73 99 198 19 99 199 19 98 197 19 128 225 50 103 198 27 92 184 18 88 177 17 84 169 16 79 159 15 74 149 14 68 136 13 61 122 12 53 106 10 44 88 8 32 65 6 16 33 3 136 0 0 135 0 0 135 0 0 135 0 0 134 0 0 134 0 0 134 0 0 133 0 0 133 0 0 133 0 0 133 0 0 132 0 0
0 0 163 0 0 163 0 0 162 0 0 162 0 0 162 0 0 162 0 0 161 0 0 161 0 0
161 0 0 161 0 0 160 0 0 160 0 0 160 0 0 160 0 0 159 0 0 159 187 150 18 185 148 18 175 140 17 160 128 16 143 114 14 122 98 12 99 79 9 69 55 6 25 20 2 0 0 156 0 0 156 0 0 156 0 0 155 0 0 155 86 86 86 92 92 92 94 94 94 94 94 94 93 93 93 90 90 90 87 87 87 83 83 83 79 79 79 74 74 74 69 69 69 63 63 63 57 57 57 50 50 50 43 43 43 35 35 35 27 27 27 25 25 25 25 25 25 25 25 25 25 25 25 25 25 25 25 25 25 25 25 25 25 0 0 25 0 0 25 0 0 25 0 0 25 0 0 25 0 0 25 0 0 25 0 0 25 0 0 25 0 0 25 0 0 25 0 0 25 0 0 25 0 0 25 0 0 109 193 42 116 208 43 161 255 85 96 193 19 96 193 19 96 192 19 94 189 18 92 184 18 89 179 17 86 172 17 82 164 16 77 154 15 72 144 14 66 132 13 59 118 11 51 102 10 42 84 8 31 62 6 16 33 3 138 0 0 137 0 0 137 0 0 137 0 0 136 0 0 136 0 0 136 0 0 136 0 0 135 0 0 135 0 0 135 0 0 134 0 0
0 0 164 0 0 164 0 0 164 0 0 164 0 0 163 0 0 163 0 0 163 0 0 163 0 0
162 0 0 162 0 0 162 0 0 162 0 0 161 0 0 161 0 0 161 199 159 19 198 158 19 189 151 18 176 141 17 161 128 16 143 114 14 123 98 12 101 80 10 75 60 7 43 35 4 25 20 2 0 0 158 0 0 157 0 0 157 0 0 157 0 0 156 74 74 74 80 80 80 81 81 81 81 81 81 79 79 79 76 76 76 72 72 72 68 68 68 64 64 64 58 58 58 53 53 53 46 46 46 40 40 40 32 32 32 25 25 25 25 25 25 25 25 25 25 25 25 25 25 25 25 25 25 25 25 25 25 25 25 25 0 0 25 0 0 25 0 0 25 0 0 25 0 0 25 0 0 25 0 0 25 0 0 25 0 0 25 0 0 25 0 0 25 0 0 25 0 0 25 0 0 25 0 0 25 0 0 105 160 41 113 200 43 91 182 195 182 255 27 93 186 18 92 185 18 91 182 18 89 178 17 86 172 17 82 165 16 78 157 15 74 148 14 69 138 13 63 126 12 56 112 11 48 97 9 39 79 7 71 57 5 135 29 2 150 25 2 139 0 0 139 0 0 139 0 0 138 0 0 138 0 0 138 0 0 137 0 0 137 0 0 137 0 0 137 0 0 136 0 0
0 0 166 0 0 166 0 0 165 0 0 165 0 0 165 0 0 165 0 0 164 0 0 164 0 0
164 0 0 164 0 0 163 0 0 163 0 0 163 0 0 162 200 160 20 203 163 20 197 157 19 186 149 18 172 138 17 157 125 15 139 111 13 119 95 11 97 78 9 73 58 7 44 35 4 25 20 2 0 0 159 0 0 159 0 0 158 0 0 158 0 0 158 0 0 158 59 0 59 65 65 65 66 66 66 65 65 65 63 63 63 60 60 60 56 56 56 52 52 52 47 47 47 41 41 41 35 35 35 28 28 28 25 25 25 25 25 25 25 25 25 25 25 25 25 25 25 25 0 25 25 0 25 25 0 25 25 0 0 25 0 0 25 0 0 25 0 0 25 0 0 25 0 0 25 0 0 25 0 0 25 0 0 25 0 0 25 0 0 25 0 0 25 0 0 25 0 0 25 0 0 25 0 0 25 0 0 100 149 14 82 165 42 86 173 42 88 177 188 89 178 195 88 177 205 87 174 218 85 170 234 82 164 237 78 157 193 74 149 136 167 140 14 65 130 113 59 118 127 52 105 137 177 89 8 171 71 7 161 49 4 151 25 2 153 25 2 141 0 0 141 0 0 140 0 0 140 0 0 140 0 0 139 0 0 139 0 0 139 0 0 139 0 0 138 0 0 138 0 0
0 0 167 0 0 167 0 0 167 0 0 166 0 0 166 0 0 166 0 0 166 0 0 165 0 0
165 0 0 165 0 0 164 0 0 164 0 0 164 0 0 164 203 162 20 200 160 20 191 153 19 193 157 31 166 132 16 150 120 15 132 106 13 112 90 11 91 73 9 67 53 6 39 31 3 25 20 2 25 20 2 0 0 160 0 0 160 0 0 159 0 0 159 0 0 159 0 0 159 38 0 38 47 0 47 49 0 49 48 0 48 46 0 46 43 0 43 38 0 38 33 0 33 28 0 28 25 0 25 25 0 25 25 0 25 25 0 25 25 0 25 25 0 25 25 0 25 25 0 25 25 0 25 25 0 0 25 0 0 25 0 0 25 0 0 25 0 0 25 0 0 25 0 0 25 0 0 25 0 0 25 0 0 25 0 0 25 0 0 25 0 0 25 0 0 25 0 0 25 0 0 25 0 0 25 0 0 92 133 13 234 152 15 241 162 16 83 166 179 83 167 181 83 167 182 249 164 16 248 160 16 245 155 15 241 148 14 235 140 14 228 131 13 220 121 12 211 109 10 201 95 9 190 80 8 179 62 6 166 40 4 157 25 2 143 0 0 142 0 0 142 0 0 142 0 0 142 0 0 141 0 0 141 0 0 141 0 0 140 0 0 140 0 0 140 0 0 140 0 0
0 0 168 0 0 168 0 0 168 0 0 167 0 0 167 0 0 167 0 0 167 0 0 166 0 0
166 0 0 166 0 0 166 0 0 165 0 0 165 188 151 18 197 158 19 192 154 19 183 146 18 174 139 19 157 125 15 141 113 14 123 98 12 103 83 10 82 65 8 58 46 5 31 25 3 25 20 2 25 20 2 0 0 161 0 0 161 0 0 160 0 0 160 0 0 160 0 0 160 0 0 159 0 0 159 25 0 25 27 0 27 27 0 27 25 0 25 25 0 25 25 0 25 25 0 25 25 0 25 25 0 25 25 0 25 25 0 25 25 0 25 25 0 25 25 0 25 0 0 25 25 0 0 25 0 0 25 0 0 25 0 0 25 0 0 25 0 0 25 0 0 25 0 0 25 0 0 25 0 0 25 0 0 25 0 0 25 0 0 25 0 0 25 0 0 25 0 0 25 0 0 25 0 0 150 0 0 208 109 10 225 136 13 232 148 14 236 153 15 238 155 15 239 155 15 238 153 15 236 149 14 233 144 14 230 137 13 225 130 13 219 121 12 212 110 11 205 98 9 196 85 8 187 69 6 175 50 5 162 27 2 159 25 2 25 0 0 25 0 0 144 0 0 143 0 0 143 0 0 143 0 0 142 0 0 142 0 0 142 0 0 142 0 0 141 0 0 141 0 0
0 0 169 0 0 169 0 0 169 0 0 168 0 0 168 0 0 168 0 0 168 0 0 167 0 0
167 0 0 167 0 0 167 0 0 166 0 0 166 184 147 18 188 150 18 182 146 18 172 138 17 160 128 16 146 117 14 130 104 13 112 90 11 93 74 9 71 57 7 47 38 4 25 20 2 25 20 2 25 20 2 0 0 162 0 0 162 0 0 162 0 0 161 0 0 161 0 0 161 0 0 160 0 0 160 0 0 160 0 0 160 0 0 25 25 25 25 25 25 25 25 0 25 25 0 25 25 0 25 25 25 25 25 25 25 25 25 25 0 0 25 0 0 25 0 0 25 0 0 25 25 0 0 25 0 0 25 0 0 25 0 0 25 0 0 25 0 0 25 0 0 25 0 0 25 0 0 25 0 0 25 0 0 25 0 0 25 0 0 152 0 0 152 0 0 152 0 0 151 0 0 151 0 0 151 0 0 151 0 0 213 115 11 222 131 13 227 138 13 229 141 14 230 141 14 229 140 14 227 136 13 225 131 13 221 125 12 217 117 11 211 108 10 205 98 9 198 86 8 190 72 7 180 55 5 169 36 3 162 25 2 38 25 2 25 0 0 25 0 0 25 0 0 25 0 0 25 0 0 25 0 0 25 0 0 144 0 0 143 0 0 143 0 0 143 0 0 142 0 0
0 0 170 0 0 170 0 0 169 0 0 169 0 0 169 0 0 169 0 0 168 0 0 168 0 0
168 0 0 168 0 0 167 0 0 167 0 0 167 171 137 17 175 140 17 170 136 17 160 128 16 148 118 14 133 107 13 117 94 11 99 79 9 80 64 8 58 46 5 34 27 3 25 20 2 25 20 2 25 20 2 0 0 163 0 0 163 0 0 162 0 0 162 0 0 162 0 0 162 0 0 161 0 0 161 0 0 161 0 0 161 0 0 160 0 0 25 0 0 25 0 0 25 0 0 25 0 0 25 0 0 25 0 0 25 0 0 25 0 0 25 0 0 25 0 0 25 0 0 25 25 0 0 25 0 0 25 0 0 25 0 0 25 0 0 25 0 0 25 0 0 25 0 0 155 0 0 154 0 0 154 0 0 154 0 0 154 0 0 153 0 0 153 0 0 153 0 0 153 0 0 152 0 0 152 0 0 152 0 0 194 79 7 210 108 10 217 119 11 220 124 12 221 125 12 220 124 12 219 122 12 216 117 11 213 111 11 209 103 10 203 94 9 197 83 8 190 71 7 182 56 5 172 39 3 164 25 2 163 25 2 25 0 0 25 0 0 25 0 0 25 0 0 25 0 0 25 0 0 25 0 0 25 0 0 25 0 0 25 0 0 144 0 0 144 0 0 144 0 0
0 0 171 0 0 170 0 0 170 0 0 170 0 0 170 0 0 169 0 0 169 0 0 169 0 0
169 0 0 168 0 0 168 0 0 168 0 0 168 153 122 15 160 128 16 155 124 15 145 116 14 133 106 13 119 95 11 103 82 10 85 68 8 65 52 6 43 34 4 25 20 2 25 20 2 25 20 2 25 20 2 0 0 164 0 0 164 0 0 163 0 0 163 0 0 163 0 0 163 0 0 25 0 0 162 0 0 162 0 0 161 0 0 161 0 0 161 0 0 161 0 0 160 0 0 160 0 0 160 0 0 160 0 0 159 0 0 159 0 0 159 0 0 159 0 0 158 0 0 158 158 0 0 158 0 0 157 0 0 157 0 0 157 0 0 156 0 0 156 0 0 156 0 0 156 0 0 155 0 0 155 0 0 155 0 0 155 0 0 154 0 0 154 0 0 154 0 0 154 0 0 153 0 0 153 0 0 153 0 0 152 0 0 192 74 7 203 95 9 208 103 10 210 106 10 210 106 10 209 104 10 207 100 10 204 94 9 199 87 8 194 77 7 188 66 6 181 53 5 173 38 3 165 25 2 164 25 2 38 25 2 25 0 0 25 0 0 25 0 0 25 0 0 25 0 0 25 0 0 25 0 0 25 0 0 25 0 0 25 0 0 146 0 0 145 0 0 145 0 0
0 0 171 0 0 171 0 0 171 0 0 171 0 0 170 0 0 170 0 0 170 0 0 170 0 0
169 0 0 169 0 0 169 0 0 169 0 0 168 0 0 168 140 112 14 137 110 13 128 103 12 117 93 11 102 82 10 86 69 8 68 54 6 48 38 4 26 21 2 25 20 2 25 20 2 25 20 2 0 0 25 0 0 25 0 0 25 0 0 25 0 0 25 0 0 25 0 0 25 0 0 25 0 0 25 0 0 25 0 0 25 0 0 162 0 0 162 0 0 162 0 0 161 0 0 161 0 0 161 0 0 160 0 0 160 0 0 160 0 0 160 0 0 159 0 0 159 0 0 159 159 0 0 158 0 0 158 0 0 158 0 0 158 0 0 157 0 0 157 0 0 157 0 0 157 0 0 156 0 0 156 0 0 156 0 0 156 0 0 155 0 0 155 0 0 155 0 0 155 0 0 154 0 0 154 0 0 154 0 0 153 0 0 153 0 0 183 55 5 193 75 7 197 82 8 198 84 8 198 83 8 196 79 7 193 74 7 189 67 6 184 57 5 178 46 4 170 31 3 166 25 2 165 25 2 38 25 2 25 0 0 25 0 0 25 0 0 25 0 0 25 0 0 25 0 0 25 0 0 25 0 0 25 0 0 25 0 0 25 0 0 147 0 0 146 0 0 146 0 0
0 0 172 0 0 172 0 0 172 0 0 171 0 0 171 0 0 171 0 0 171 0 0 170 0 0
170 0 0 170 0 0 170 0 0 169 0 0 169 0 0 169 114 91 11 115 92 11 108 87 10 97 78 9 83 67 8 67 54 6 49 39 4 29 23 2 25 20 2 25 20 2 25 20 2 25 20 2 0 0 25 0 0 25 0 0 25 0 0 25 0 0 25 0 0 25 0 0 25 0 0 25 0 0 25 0 0 25 0 0 163 0 0 163 0 0 163 0 0 162 0 0 162 0 0 162 0 0 162 0 0 161 0 0 161 0 0 161 0 0 161 0 0 160 0 0 160 0 0 160 159 0 0 159 0 0 159 0 0 159 0 0 158 0 0 158 0 0 158 0 0 158 0 0 157 0 0 157 0 0 157 0 0 157 0 0 156 0 0 156 0 0 156 0 0 156 0 0 155 0 0 155 0 0 155 0 0 155 0 0 154 0 0 154 0 0 154 0 0 154 0 0 178 46 4 182 54 5 183 55 5 182 53 5 180 49 4 176 41 4 170 31 3 167 25 2 166 25 2 38 25 2 25 0 0 25 0 0 25 0 0 25 0 0 25 0 0 25 0 0 25 0 0 25 0 0 25 0 0 25 0 0 25 0 0 148 0 0 148 0 0 148 0 0 147 0 0 147 0 0
0 0 173 0 0 172 0 0 172 0 0 172 0 0 172 0 0 171 0 0 171 0 0 171 0 0
171 0 0 170 0 0 170 0 0 170 0 0 170 0 0 169 0 0 169 86 69 8 83 67 8 74 59 7 61 48 6 45 36 4 26 21 2 25 20 2 25 20 2 25 20 2 25 20 2 0 0 25 0 0 25 0 0 25 0 0 25 0 0 25 0 0 25 0 0 25 0 0 25 0 0 25 0 0 164 0 0 164 0 0 164 0 0 163 0 0 163 0 0 163 0 0 163 0 0 162 0 0 162 0 0 162 0 0 162 0 0 161 0 0 161 0 0 161 0 0 161 0 0 160 160 0 0 160 0 0 160 0 0 159 0 0 159 0 0 159 0 0 159 0 0 158 0 0 158 0 0 158 0 0 158 0 0 157 0 0 157 0 0 157 0 0 157 0 0 157 0 0 156 0 0 156 0 0 156 0 0 156 0 0 155 0 0 155 0 0 155 0 0 155 0 0 154 0 0 25 0 0 167 25 2 167 25 2 167 25 2 167 25 2 167 25 2 38 25 2 25 0 0 25 0 0 25 0 0 25 0 0 25 0 0 25 0 0 25 0 0 25 0 0 25 0 0 25 0 0 25 0 0 150 0 0 149 0 0 149 0 0 149 0 0 149 0 0 148 0 0 148 0 0
0 0 173 0 0 173 0 0 173 0 0 172 0 0 172 0 0 172 0 0 172 0 0 171 0 0
171 0 0 171 0 0 171 0 0 170 0 0 170 0 0 170 0 0 170 0 0 169 44 35 4 42 34 4 31 25 3 25 20 2 25 20 2 25 20 2 25 20 2 0 0 25 0 0 25 0 0 25 0 0 25 0 0 25 0 0 25 0 0 25 0 0 25 0 0 166 0 0 165 0 0 165 0 0 165 0 0 165 0 0 164 0 0 164 0 0 164 0 0 164 0 0 163 0 0 163 0 0 163 0 0 163 0 0 162 0 0 162 0 0 162 0 0 162 0 0 161 0 0 161 161 0 0 161 0 0 160 0 0 160 0 0 160 0 0 160 0 0 159 0 0 159 0 0 159 0 0 159 0 0 159 0 0 158 0 0 158 0 0 158 0 0 158 0 0 157 0 0 157 0 0 157 0 0 157 0 0 156 0 0 156 0 0 156 0 0 156 0 0 155 0 0 155 0 0 155 0 0 155 0 0 154 0 0 25 0 0 25 0 0 25 0 0 25 0 0 25 0 0 25 0 0 25 0 0 25 0 0 25 0 0 25 0 0 152 0 0 152 0 0 151 0 0 151 0 0 151 0 0 151 0 0 150 0 0 150 0 0 150 0 0 150 0 0 149 0 0 149 0 0
0 0 174 0 0 173 0 0 173 0 0 173 0 0 173 0 0 172 0 0 172 0 0 172 0 0
172 0 0 171 0 0 171 0 0 171 0 0 171 0 0 170 0 0 170 0 0 170 0 0 170 0 0 170 0 0 25 0 0 25 0 0 25 0 0 25 0 0 25 0 0 25 0 0 25 0 0 25 0 0 25 0 0 167 0 0 167 0 0 167 0 0 166 0 0 166 0 0 166 0 0 166 0 0 165 0 0 165 0 0 165 0 0 165 0 0 164 0 0 164 0 0 164 0 0 164 0 0 164 0 0 163 0 0 163 0 0 163 0 0 163 0 0 162 0 0 162 0 0 162 162 0 0 161 0 0 161 0 0 161 0 0 161 0 0 160 0 0 160 0 0 160 0 0 160 0 0 159 0 0 159 0 0 159 0 0 159 0 0 158 0 0 158 0 0 158 0 0 158 0 0 158 0 0 157 0 0 157 0 0 157 0 0 157 0 0 156 0 0 156 0 0 156 0 0 156 0 0 155 0 0 155 0 0 155 0 0 155 0 0 154 0 0 154 0 0 154 0 0 154 0 0 154 0 0 153 0 0 153 0 0 153 0 0 153 0 0 152 0 0 152 0 0 152 0 0 152 0 0 151 0 0 151 0 0 151 0 0 151 0 0 151 0 0 150 0 0 150 0 0
0 0 174 0 0 174 0 0 173 0 0 173 0 0 173 0 0 173 0 0 173 0 0 172 0 0
172 0 0 172 0 0 172 0 0 171 0 0 171 0 0 171 0 0 171 0 0 170 0 0 170 0 0 170 0 0 170 0 0 170 0 0 169 0 0 169 0 0 169 0 0 169 0 0 168 0 0 168 0 0 168 0 0 168 0 0 167 0 0 167 0 0 167 0 0 167 0 0 166 0 0 166 0 0 166 0 0 166 0 0 166 0 0 165 0 0 165 0 0 165 0 0 165 0 0 164 0 0 164 0 0 164 0 0 164 0 0 163 0 0 163 0 0 163 0 0 163 0 0 162 162 0 0 162 0 0 162 0 0 162 0 0 161 0 0 161 0 0 161 0 0 161 0 0 160 0 0 160 0 0 160 0 0 160 0 0 159 0 0 159 0 0 159 0 0 159 0 0 158 0 0 158 0 0 158 0 0 158 0 0 158 0 0 157 0 0 157 0 0 157 0 0 157 0 0 156 0 0 156 0 0 156 0 0 156 0 0 155 0 0 155 0 0 155 0 0 155 0 0 155 0 0 154 0 0 154 0 0 154 0 0 154 0 0 153 0 0 153 0 0 153 0 0 153 0 0 152 0 0 152 0 0 152 0 0 152 0 0 152 0 0 151 0 0 151 0 0 151 0 0
0 0 174 0 0 174 0 0 174 0 0 174 0 0 173 0 0 173 0 0 173 0 0 173 0 0
173 0 0 172 0 0 172 0 0 172 0 0 172 0 0 171 0 0 171 0 0 171 0 0 171 0 0 170 0 0 170 0 0 170 0 0 170 0 0 170 0 0 169 0 0 169 0 0 169 0 0 169 0 0 168 0 0 168 0 0 168 0 0 168 0 0 167 0 0 167 0 0 167 0 0 167 0 0 167 0 0 166 0 0 166 0 0 166 0 0 166 0 0 165 0 0 165 0 0 165 0 0 165 0 0 164 0 0 164 0 0 164 0 0 164 0 0 163 0 0 163 0 0 163 163 0 0 163 0 0 162 0 0 162 0 0 162 0 0 162 0 0 161 0 0 161 0 0 161 0 0 161 0 0 160 0 0 160 0 0 160 0 0 160 0 0 160 0 0 159 0 0 159 0 0 159 0 0 159 0 0 158 0 0 158 0 0 158 0 0 158 0 0 158 0 0 157 0 0 157 0 0 157 0 0 157 0 0 156 0 0 156 0 0 156 0 0 156 0 0 155 0 0 155 0 0 155 0 0 155 0 0 155 0 0 154 0 0 154 0 0 154 0 0 154 0 0 153 0 0 153 0 0 153 0 0 153 0 0 153 0 0 152 0 0 152 0 0 152 0 0 152 0 0
0 0 175 0 0 174 0 0 174 0 0 174 0 0 174 0 0 174 0 0 173 0 0 173 0 0
173 0 0 173 0 0 172 0 0 172 0 0 172 0 0 172 0 0 172 0 0 171 0 0 171 0 0 171 0 0 171 0 0 170 0 0 170 0 0 170 0 0 170 0 0 169 0 0 169 0 0 169 0 0 169 0 0 169 0 0 168 0 0 168 0 0 168 0 0 168 0 0 167 0 0 167 0 0 167 0 0 167 0 0 167 0 0 166 0 0 166 0 0 166 0 0 166 0 0 165 0 0 165 0 0 165 0 0 165 0 0 164 0 0 164 0 0 164 0 0 164 0 0 164 163 0 0 163 0 0 163 0 0 163 0 0 162 0 0 162 0 0 162 0 0 162 0 0 162 0 0 161 0 0 161 0 0 161 0 0 161 0 0 160 0 0 160 0 0 160 0 0 160 0 0 160 0 0 159 0 0 159 0 0 159 0 0 159 0 0 158 0 0 158 0 0 158 0 0 158 0 0 157 0 0 157 0 0 157 0 0 157 0 0 157 0 0 156 0 0 156 0 0 156 0 0 156 0 0 155 0 0 155 0 0 155 0 0 155 0 0 155 0 0 154 0 0 154 0 0 154 0 0 154 0 0 154 0 0 153 0 0 153 0 0 153 0 0 153 0 0 152 0 0

