P3
100 50
255
0 0 0 0 0 0 0 0 0 0 0 0 0 0 0 0 0 0 0 0 0 0 0 0 0 0 0 0 0 0 0 0 0 0 0
0 0 0 0 0 0 0 0 0 0 0 0 0 0 0 0 0 0 0 0 0 0 0 0 0 0 0 0 0 0 0 0 0 0 0 0 0 0 0 0 0 0 0 0 0 0 0 0 0 0 0 0 0 0 0 0 0 0 0 0 0 0 0 0 0 0 0 0 0 0 0 0 0 0 0 0 0 0 0 0 0 0 0 0 0 0 0 0 0 0 0 0 0 0 0 0 0 0 0 0 0 0 0 0 0 0 0 0 0 0 0 0 0 0 0 0 0 0 0 0 0 0 0 0 0 0 0 0 0 0 0 0 0 0 0 0 0 0 0 0 0 0 0 0 0 0 0 0 0 0 0 0 0 0 0 0 0 0 0 0 0 0 0 0 0 0 0 0 0 0 0 0 0 0 0 0 0 0 0 0 0 0 0 0 0 0 0 0 0 0 0 0 0 0 0 0 0 0 0 0 0 0 0 0 0 0 0 0 0 0 0 0 0 0 0 0 0 0 0 0 0 0 0 0 0 0 0 0 0 0 0 0 0 0 0 0 0 0 0 0 0 0 0 0 0 0 0 0 0 0 0 0 0 0 0 0 0 0 0 0 0 0 0 0 0
0 0 0 0 0 0 0 0 0 0 0 0 0 0 0 0 0 0 0 0 0 0 0 0 0 0 0 0 0 0 0 0 0 0 0
0 0 0 0 0 0 0 0 0 0 0 0 0 0 0 0 0 0 0 0 0 0 0 0 0 0 0 0 0 0 0 0 0 0 0 0 0 0 0 0 0 0 0 0 0 0 0 0 0 0 0 0 0 0 0 0 0 0 0 0 0 0 0 0 0 0 0 0 0 0 0 0 0 0 0 0 0 0 0 0 0 0 0 0 0 0 0 0 0 0 0 0 0 0 0 0 0 0 0 0 0 0 0 0 0 0 0 0 0 0 0 0 0 0 0 0 0 0 0 0 0 0 0 0 0 0 0 0 0 0 0 0 0 0 0 0 0 0 0 0 0 0 0 0 0 0 0 0 0 0 0 0 0 0 0 0 0 0 0 0 0 0 0 0 0 0 0 0 0 0 0 0 0 0 0 0 0 0 0 0 0 0 0 0 0 0 0 0 0 0 0 0 0 0 0 0 0 0 0 0 0 0 0 0 0 0 0 0 0 0 0 0 0 0 0 0 0 0 0 0 0 0 0 0 0 0 0 0 0 0 0 0 0 0 0 0 0 0 0 0 0 0 0 0 0 0 0 0 0 0 0 0 0 0 0 0 0 0 0 0 0 0 0 0 0
0 0 0 0 0 0 0 0 0 0 0 0 0 0 0 0 0 0 0 0 0 0 0 0 0 0 0 0 0 0 0 0 0 0 0
0 0 0 0 0 0 0 0 0 0 0 0 0 0 0 0 0 0 0 0 0 0 0 0 0 0 0 0 0 0 0 0 0 0 0 0 0 0 0 0 0 0 0 0 0 0 0 0 0 0 0 0 0 0 0 0 0 0 0 0 0 0 0 0 0 0 0 0 0 0 0 0 0 0 0 0 0 0 0 0 0 0 0 0 0 0 0 0 0 0 0 0 0 0 0 0 0 0 0 0 0 0 0 0 0 0 0 0 0 0 0 0 0 0 0 0 0 0 0 0 0 0 0 0 0 0 0 0 0 0 0 0 0 0 0 0 0 0 0 0 0 0 0 0 0 0 0 0 0 0 0 0 0 0 0 0 0 0 0 0 0 0 0 0 0 0 0 0 0 0 0 0 0 0 0 0 0 0 0 0 0 0 0 0 0 0 0 0 0 0 0 0 0 0 0 0 0 0 0 0 0 0 0 0 0 0 0 0 0 0 0 0 0 0 0 0 0 0 0 0 0 0 0 0 0 0 0 0 0 0 0 0 0 0 0 0 0 0 0 0 0 0 0 0 0 0 0 0 0 0 0 0 0 0 0 0 0 0 0 0 0 0 0 0 0
0 0 0 0 0 0 0 0 0 0 0 0 0 0 0 0 0 0 0 0 0 0 0 0 0 0 0 0 0 0 0 0 0 0 0
0 0 0 0 0 0 0 0 0 0 0 0 0 0 0 0 0 0 0 0 0 0 0 0 0 0 0 0 0 0 0 0 0 0 0 0 0 0 0 0 0 0 0 0 0 0 0 0 0 0 0 0 0 0 0 0 0 0 0 0 0 0 0 0 0 0 0 0 0 0 0 0 0 0 0 0 0 0 0 0 0 0 0 0 0 0 0 0 0 0 0 0 0 0 0 0 0 0 0 0 0 0 0 0 0 0 0 0 0 0 0 0 0 0 0 0 0 0 0 0 0 0 0 0 0 0 0 0 0 0 0 0 0 0 0 0 0 0 0 0 0 0 0 0 0 0 0 0 0 0 0 0 0 0 0 0 0 0 0 0 0 0 0 0 0 0 0 0 0 0 0 0 0 0 0 0 0 0 0 0 0 0 0 0 0 0 0 0 0 0 0 0 0 0 0 0 0 0 0 0 0 0 0 0 0 0 0 0 0 0 0 0 0 0 0 0 0 0 0 0 0 0 0 0 0 0 0 0 0 0 0 0 0 0 0 0 0 0 0 0 0 0 0 0 0 0 0 0 0 0 0 0 0 0 0 0 0 0 0 0 0 0 0 0 0
0 0 0 0 0 0 0 0 0 0 0 0 0 0 0 0 0 0 0 0 0 0 0 0 0 0 0 0 0 0 0 0 0 0 0
0 0 0 0 0 0 0 0 0 0 0 0 0 0 0 0 0 0 0 0 0 0 0 0 0 0 0 0 0 0 0 0 0 0 0 0 0 0 0 0 0 0 0 0 0 0 0 0 0 0 0 0 0 0 0 0 0 0 0 0 0 0 0 0 0 0 0 0 0 0 0 0 0 0 0 0 0 0 0 0 0 0 0 0 0 0 0 0 0 0 0 0 0 0 0 0 0 0 0 0 0 0 0 0 0 0 0 0 0 0 0 0 0 0 0 0 0 0 0 0 0 0 0 0 0 0 0 0 0 0 0 0 0 0 0 0 0 0 0 0 0 0 0 0 0 0 0 0 0 0 0 0 0 0 0 0 0 0 0 0 0 0 0 0 0 0 0 0 0 0 0 0 0 0 0 0 0 0 0 0 0 0 0 0 0 0 0 0 0 0 0 0 0 0 0 0 0 0 0 0 0 0 0 0 0 0 0 0 0 0 0 0 0 0 0 0 0 0 0 0 0 0 0 0 0 0 0 0 0 0 0 0 0 0 0 0 0 0 0 0 0 0 0 0 0 0 0 0 0 0 0 0 0 0 0 0 0 0 0 0 0 0 0 0 0
0 0 0 0 0 0 0 0 0 0 0 0 0 0 0 0 0 0 0 0 0 0 0 0 0 0 0 0 0 0 0 0 0 0 0
0 0 0 0 0 0 0 0 0 0 0 0 0 0 0 0 0 0 0 0 0 0 0 0 0 0 0 0 0 0 0 0 0 0 0 0 0 0 0 0 0 0 0 0 0 0 0 0 0 0 0 0 0 0 0 0 0 0 0 0 0 0 0 0 0 0 0 0 0 0 0 0 0 0 0 0 0 0 0 0 0 0 0 0 0 0 0 0 0 0 0 0 0 0 0 0 0 0 0 0 0 0 0 0 0 0 0 0 0 0 0 0 0 0 0 0 0 0 0 0 0 0 0 0 0 0 0 0 0 0 0 0 0 0 0 0 0 0 0 0 0 0 0 0 0 0 0 0 0 0 0 0 0 0 0 0 0 0 0 0 0 0 0 0 0 0 0 0 0 0 0 0 0 0 0 0 0 0 0 0 0 0 0 0 0 0 0 0 0 0 0 0 0 0 0 0 0 0 0 0 0 0 0 0 0 0 0 0 0 0 0 0 0 0 0 0 0 0 0 0 0 0 0 0 0 0 0 0 0 0 0 0 0 0 0 0 0 0 0 0 0 0 0 0 0 0 0 0 0 0 0 0 0 0 0 0 0 0 0 0 0 0 0 0 0
0 0 0 0 0 0 0 0 0 0 0 0 0 0 0 0 0 0 0 0 0 0 0 0 0 0 0 0 0 0 0 0 0 0 0
0 0 0 0 0 0 0 0 0 0 0 0 0 0 0 0 0 0 0 0 0 0 0 0 0 0 0 0 0 0 0 0 0 0 0 0 0 0 0 0 0 0 0 0 0 0 0 0 0 0 0 0 0 0 0 0 0 0 0 0 0 0 0 0 0 0 0 0 0 0 0 0 0 0 0 0 0 0 0 0 0 0 0 0 0 0 0 0 0 0 0 0 0 0 0 0 0 0 0 0 0 0 0 0 0 0 0 0 0 0 0 0 0 0 0 0 0 0 0 0 0 0 0 0 0 0 0 0 0 0 0 0 0 0 0 0 0 0 0 0 0 0 0 0 0 0 0 0 0 0 0 0 0 0 0 0 0 0 0 0 0 0 0 0 0 0 0 0 0 0 0 0 0 0 0 0 0 0 0 0 0 0 0 0 0 0 0 0 0 0 0 0 0 0 0 0 0 0 0 0 0 0 0 0 0 0 0 0 0 0 0 0 0 0 0 0 0 0 0 0 0 0 0 0 0 0 0 0 0 0 0 0 0 0 0 0 0 0 0 0 0 0 0 0 0 0 0 0 0 0 0 0 0 0 0 0 0 0 0 0 0 0 0 0 0
0 0 0 0 0 0 0 0 0 0 0 0 0 0 0 0 0 0 0 0 0 0 0 0 0 0 0 0 0 0 0 0 0 0 0
0 0 0 0 0 0 0 0 0 0 0 0 0 0 0 0 0 0 0 0 0 0 0 0 0 0 0 0 0 0 0 0 0 0 0 0 0 0 0 0 0 0 0 0 0 0 0 0 0 0 0 0 0 0 0 0 0 0 0 0 0 0 0 0 0 0 0 0 0 0 0 0 0 0 0 0 0 0 0 0 0 0 0 0 0 0 0 0 0 0 0 0 0 0 0 0 0 0 0 0 0 0 0 0 0 0 0 0 0 0 0 0 0 0 0 0 0 0 0 0 0 0 0 0 0 0 0 0 0 0 0 0 0 0 0 0 0 0 0 0 0 0 0 0 0 0 0 0 0 0 0 0 0 0 0 0 0 0 0 0 0 0 0 0 0 0 0 0 0 0 0 0 0 0 0 0 0 0 0 0 0 0 0 0 0 0 0 0 0 0 0 0 0 0 0 0 0 0 0 0 0 0 0 0 0 0 0 0 0 0 0 0 0 0 0 0 0 0 0 0 0 0 0 0 0 0 0 0 0 0 0 0 0 0 0 0 0 0 0 0 0 0 0 0 0 0 0 0 0 0 0 0 0 0 0 0 0 0 0 0 0 0 0 0 0
0 0 0 0 0 0 0 0 0 0 0 0 0 0 0 0 0 0 0 0 0 0 0 0 0 0 0 0 0 0 0 0 0 0 0
0 0 0 0 0 0 0 0 0 0 0 0 0 0 0 0 0 0 0 0 0 0 0 0 0 0 0 0 0 0 0 0 0 0 0 0 0 0 0 0 0 0 0 0 0 0 0 0 0 0 0 0 0 0 0 0 0 0 0 0 0 0 0 0 0 0 0 0 0 0 0 0 0 0 0 0 0 0 0 0 0 0 0 0 0 14 144 72 14 140 70 13 132 66 12 122 61 0 0 0 0 0 0 0 0 0 0 0 0 0 0 0 0 0 0 0 0 0 0 0 0 0 0 0 0 0 0 0 0 0 0 0 0 0 0 0 0 0 0 0 0 0 0 0 0 0 0 0 0 0 0 0 0 0 0 0 0 0 0 0 0 0 0 0 0 0 0 0 0 0 0 0 0 0 0 0 0 0 0 0 0 0 0 0 0 0 0 0 0 0 0 0 0 0 0 0 0 0 0 0 0 0 0 0 0 0 0 0 0 0 0 0 0 0 0 0 0 0 0 0 0 0 0 0 0 0 0 0 0 0 0 0 0 0 0 0 0 0 0 0 0 0 0 0 0 0 0 0 0 0 0 0 0 0 0 0 0 0 0 0 0 0 0 0 0
0 0 0 0 0 0 0 0 0 0 0 0 0 0 0 0 0 0 0 0 0 0 0 0 0 0 0 0 0 0 0 0 0 0 0
0 0 0 0 0 0 0 0 0 0 0 0 0 0 0 0 0 0 0 0 0 0 0 0 0 0 0 0 0 0 0 0 0 0 0 0 0 0 0 0 0 0 0 0 0 0 0 0 0 0 0 0 0 0 0 0 0 0 0 0 0 0 0 0 0 0 0 0 0 0 0 0 0 17 172 86 17 173 86 17 170 85 16 166 83 16 161 80 15 155 77 14 148 74 14 140 70 13 131 65 12 121 60 10 108 54 9 91 45 0 0 0 0 0 0 0 0 0 0 0 0 0 0 0 0 0 0 0 0 0 0 0 0 0 0 0 0 0 0 0 0 0 0 0 0 0 0 0 0 0 0 0 0 0 0 0 0 0 0 0 0 0 0 0 0 0 0 0 0 0 0 0 0 0 0 0 0 0 0 0 0 0 0 0 0 0 0 0 0 0 0 0 0 0 0 0 0 0 0 0 0 0 0 0 0 0 0 0 0 0 0 0 0 0 0 0 0 0 0 0 0 0 0 0 0 0 0 0 0 0 0 0 0 0 0 0 0 0 0 0 0 0 0 0 0 0 0 0 0 0 0 0 0 0 0 0 0 0 0 0 0 0 0 0 0
0 0 0 0 0 0 0 0 0 0 0 0 0 0 0 0 0 0 0 0 0 0 0 0 0 0 0 0 0 0 0 0 0 0 0
0 0 0 0 0 0 0 0 0 0 0 0 0 0 0 0 0 0 0 0 0 0 0 0 0 0 0 0 0 0 0 0 0 0 0 0 0 0 0 0 0 0 0 0 0 0 0 0 0 0 0 0 0 0 0 0 0 0 0 0 0 0 0 0 0 0 0 18 183 91 18 186 93 18 184 92 18 182 91 17 178 89 17 173 86 16 167 83 16 161 80 15 154 77 14 147 73 13 138 69 12 129 64 11 119 59 10 107 53 9 94 47 7 75 37 0 0 0 0 0 0 0 0 0 0 0 0 0 0 0 0 0 0 0 0 0 0 0 0 0 0 0 0 0 0 0 0 0 0 0 0 0 0 0 0 0 0 0 0 0 0 0 0 0 0 0 0 0 0 0 0 0 0 0 0 0 0 0 0 0 0 0 0 0 0 0 0 0 0 0 0 0 0 0 0 0 0 0 0 0 0 0 0 0 0 0 0 0 0 0 0 0 0 0 0 0 0 0 0 0 0 0 0 0 0 0 0 0 0 0 0 0 0 0 0 0 0 0 0 0 0 0 0 0 0 0 0 0 0 0 0 0 0 0 0 0 0 0 0 0 0 0 0 0 0
0 0 0 0 0 0 0 0 0 0 0 0 0 0 0 0 0 0 0 0 0 0 0 0 0 0 0 0 0 0 0 0 0 0 0
0 0 0 0 0 0 0 0 0 0 0 0 0 0 0 0 0 0 0 0 0 0 0 0 0 0 0 0 0 0 0 0 0 0 0 0 0 0 0 0 0 0 0 0 0 0 0 0 0 0 0 0 0 0 0 0 0 0 0 0 0 18 184 92 19 192 96 19 193 96 19 192 96 18 189 94 18 185 92 18 181 90 17 176 88 17 170 85 16 164 82 15 157 78 15 150 75 14 142 71 13 133 66 12 124 62 11 114 57 10 102 51 8 89 44 7 72 36 0 0 0 0 0 0 0 0 0 0 0 0 0 0 0 0 0 0 0 0 0 0 0 0 0 0 0 0 0 0 0 0 0 0 0 0 0 0 0 0 0 0 0 0 0 0 0 0 0 0 0 0 0 0 0 0 0 0 0 0 0 0 0 0 0 0 0 0 0 0 0 0 0 0 0 0 0 0 0 0 0 0 0 0 0 0 0 0 0 0 0 0 0 0 0 0 0 0 0 0 0 0 0 0 0 0 0 0 0 0 0 0 0 0 0 0 0 0 0 0 0 0 0 0 0 0 0 0 0 0 0 0 0 0 0 0 0 0 0 0 0 0 0 0 0 0 0
0 0 0 0 0 0 0 0 0 0 0 0 0 0 0 0 0 0 0 0 0 0 0 0 0 0 0 0 0 0 0 0 0 0 0
0 0 0 0 0 0 0 0 0 0 0 0 0 0 0 0 0 0 0 0 0 0 0 0 0 0 0 0 0 0 0 0 0 0 0 0 0 0 0 0 0 0 0 0 0 0 0 0 0 0 0 0 0 0 0 0 0 0 19 191 95 19 198 99 19 198 99 19 197 98 19 195 97 19 191 95 18 187 93 18 182 91 17 177 88 17 171 85 16 165 82 15 158 79 15 151 75 14 143 71 13 135 67 12 126 63 11 117 58 10 106 53 9 95 47 8 81 40 6 65 32 3 39 19 0 0 0 0 0 0 0 0 0 0 0 0 0 0 0 0 0 0 0 0 0 0 0 0 0 0 0 0 0 0 0 0 0 0 0 0 0 0 0 0 0 0 0 0 0 0 0 0 0 0 0 0 0 0 0 0 0 0 0 0 0 0 0 0 0 0 0 0 0 0 0 0 0 0 0 0 0 0 0 0 0 0 0 0 0 0 0 0 0 0 0 0 0 0 0 0 0 0 0 0 0 0 0 0 0 0 0 0 0 0 0 0 0 0 0 0 0 0 0 0 0 0 0 0 0 0 0 0 0 0 0 0 0 0 0 0 0 0 0 0 0
0 0 0 0 0 0 0 0 0 0 0 0 0 0 0 0 0 0 0 0 0 0 0 0 0 0 0 0 0 0 0 0 0 0 0
0 0 0 0 0 0 0 0 0 0 0 0 0 0 0 0 0 0 0 0 0 0 0 0 0 0 0 0 0 0 0 0 0 0 0 0 0 0 0 0 0 0 0 0 0 0 0 0 0 0 0 0 0 0 0 19 194 97 20 201 100 20 202 101 20 201 100 19 199 99 19 195 97 19 192 96 18 187 93 18 182 91 17 177 88 17 171 85 16 165 82 15 158 79 15 151 75 14 144 72 13 136 68 12 127 63 11 118 59 10 108 54 9 97 48 8 85 42 7 71 35 5 54 27 2 27 13 0 0 0 0 0 0 0 0 0 0 0 0 0 0 0 0 0 0 0 0 0 0 0 0 0 0 0 0 0 0 0 0 0 0 0 0 0 0 0 0 0 0 0 0 0 0 0 0 0 0 0 0 0 0 0 0 0 0 0 0 0 0 0 0 0 0 0 0 0 0 0 0 0 0 0 0 0 0 0 0 0 0 0 0 0 0 0 0 0 0 0 0 0 0 0 0 0 0 0 0 0 0 0 0 0 0 0 0 0 0 0 0 0 0 0 0 0 0 0 0 0 0 0 0 0 0 0 0 0 0 0 0 0 0 0 0 0 0
0 0 0 0 0 0 0 0 0 0 0 0 0 0 0 0 0 0 0 0 0 0 0 0 0 0 0 0 0 0 0 0 0 0 0
0 0 0 0 0 0 0 0 0 0 0 0 0 0 0 0 0 0 0 0 0 0 0 0 0 0 0 0 0 0 0 0 0 0 0 0 0 0 0 0 0 0 0 0 0 0 0 0 0 0 0 0 19 192 96 20 201 100 20 204 102 20 203 101 20 201 100 19 199 99 19 195 97 19 191 95 18 187 93 18 182 91 17 176 88 17 170 85 16 164 82 15 158 79 15 151 75 14 143 71 13 136 68 12 127 63 11 118 59 10 109 54 9 98 49 8 87 43 7 74 37 6 60 30 4 41 20 2 25 12 0 0 0 0 0 0 0 0 0 0 0 0 0 0 0 0 0 0 0 0 0 0 0 0 0 0 0 0 0 0 0 0 0 0 0 0 0 0 0 0 0 0 0 0 0 0 0 0 0 0 0 0 0 0 0 0 0 0 0 0 0 0 0 0 0 0 0 0 0 0 0 0 0 0 0 0 0 0 0 0 0 0 0 0 0 0 0 0 0 0 0 0 0 0 0 0 0 0 0 0 0 0 0 0 0 0 0 0 0 0 0 0 0 0 0 0 0 0 0 0 0 0 0 0 0 0 0 0 0 0 0 0 0 0 0
0 0 0 0 0 0 0 0 0 0 0 0 0 0 0 0 0 0 0 0 0 0 0 0 0 0 0 0 0 0 0 0 0 0 0
0 0 0 0 0 0 0 0 0 0 0 0 0 0 0 0 0 0 0 0 0 0 0 0 0 0 0 0 0 0 0 0 0 0 0 0 0 0 0 0 0 0 0 0 0 0 0 0 0 0 0 0 20 200 100 20 204 102 20 204 102 20 203 101 20 201 100 19 198 99 19 194 97 19 190 95 18 185 92 18 180 90 17 175 87 16 169 84 16 163 81 15 156 78 14 149 74 14 142 71 13 135 67 12 126 63 11 118 59 10 108 54 9 99 49 8 88 44 7 76 38 6 62 31 4 46 23 2 26 13 0 0 0 0 0 0 0 0 0 0 0 0 0 0 0 0 0 0 0 0 0 0 0 0 0 0 0 0 0 0 0 0 0 0 0 0 0 0 0 0 0 0 0 0 0 0 0 0 0 0 0 0 0 0 0 0 0 0 0 0 0 0 0 0 0 0 0 0 0 0 0 0 0 0 0 0 0 0 0 0 0 0 0 0 0 0 0 0 0 0 0 0 0 0 0 0 0 0 0 0 0 0 0 0 0 0 0 0 0 0 0 0 0 0 0 0 0 0 0 0 0 0 0 0 0 0 0 0 0 0 0 0 0 0 0
27 0 0 0 0 27 27 0 0 27 0 0 0 0 27 27 0 0 27 0 0 0 0 27 27 0 0 0 0 27
0 0 27 27 0 0 0 0 27 0 0 27 27 0 0 0 0 27 27 0 0 27 0 0 0 0 27 27 0 0 27 0 0 0 0 27 27 0 0 0 0 27 0 0 27 27 0 0 0 0 27 0 0 27 19 196 98 20 202 101 20 204 102 20 204 102 20 202 101 19 199 99 19 196 98 19 192 96 18 188 94 18 183 91 17 178 89 17 173 86 16 167 83 16 161 80 15 154 77 14 148 74 14 140 70 13 133 66 12 125 62 11 116 58 10 107 53 9 98 49 8 87 43 7 76 38 6 63 31 4 49 24 3 31 15 2 25 12 27 0 0 0 0 27 27 0 0 27 0 0 0 0 27 27 0 0 27 0 0 0 0 27 27 0 0 0 0 27 0 0 27 27 0 0 0 0 27 0 0 27 27 0 0 0 0 27 27 0 0 27 0 0 0 0 27 27 0 0 27 0 0 0 0 27 27 0 0 0 0 27 0 0 27 27 0 0 0 0 27 0 0 27 27 0 0 0 0 27 27 0 0 27 0 0 0 0 27 27 0 0 27 0 0 0 0 27 27 0 0 0 0 27 0 0 27 27 0 0 0 0 27 0 0 27 27 0 0 0 0 27
0 0 42 0 0 42 0 0 42 0 0 42 0 0 42 0 0 43 43 0 0 43 0 0 43 0 0 43 0 0
43 0 0 43 0 0 43 0 0 0 0 43 0 0 43 0 0 43 0 0 43 0 0 43 0 0 43 0 0 43 43 0 0 43 0 0 44 0 0 44 0 0 44 0 0 44 0 0 44 0 0 18 181 90 19 199 99 20 202 101 20 203 101 20 202 101 20 200 100 19 197 98 19 194 97 19 190 95 18 186 93 18 181 90 17 176 88 17 170 85 16 165 82 15 159 79 15 152 76 14 145 72 13 138 69 13 131 65 12 123 61 11 115 57 10 106 53 9 96 48 8 86 43 7 75 37 6 63 31 4 49 24 3 33 16 2 25 12 44 0 0 0 0 44 0 0 44 0 0 44 0 0 44 0 0 44 0 0 44 0 0 43 0 0 43 43 0 0 43 0 0 43 0 0 43 0 0 43 0 0 43 0 0 43 0 0 0 0 43 0 0 43 0 0 43 0 0 43 0 0 43 0 0 43 0 0 43 0 0 43 43 0 0 42 0 0 42 0 0 42 0 0 42 0 0 42 0 0 42 0 0 0 0 42 0 0 42 0 0 42 0 0 42 0 0 42 0 0 42 0 0 42 41 0 0 41 0 0 41 0 0 41 0 0 41 0 0 41 0 0
57 0 0 57 0 0 57 0 0 57 0 0 58 0 0 58 0 0 58 0 0 58 0 0 0 0 58 0 0 58
0 0 58 0 0 58 0 0 58 0 0 58 0 0 59 0 0 59 0 0 59 0 0 59 0 0 59 0 0 59 0 0 59 0 0 59 59 0 0 59 0 0 59 0 0 59 0 0 59 0 0 19 191 95 19 199 99 20 201 100 20 201 100 20 200 100 19 197 98 19 194 97 19 191 95 25 194 100 34 199 107 19 180 90 17 173 86 16 167 83 16 162 81 15 156 78 14 149 74 14 143 71 13 136 68 12 128 64 12 120 60 11 112 56 10 103 51 9 94 47 8 84 42 7 73 36 6 62 31 4 48 24 3 33 16 2 25 12 2 25 12 58 0 0 58 0 0 58 0 0 58 0 0 58 0 0 58 0 0 58 0 0 0 0 58 0 0 58 0 0 58 0 0 58 0 0 57 0 0 57 0 0 57 0 0 57 0 0 57 0 0 57 0 0 57 0 0 57 0 0 57 0 0 56 56 0 0 56 0 0 56 0 0 56 0 0 56 0 0 56 0 0 56 0 0 55 0 0 55 0 0 55 0 0 55 0 0 55 0 0 55 0 0 55 0 0 0 0 54 0 0 54 0 0 54 0 0 54 0 0 54 0 0 54 0 0 54 0 0 54
0 0 71 0 0 72 0 0 72 0 0 72 0 0 72 0 0 72 0 0 72 0 0 72 0 0 72 72 0 0
72 0 0 73 0 0 73 0 0 73 0 0 73 0 0 73 0 0 73 0 0 73 0 0 73 0 0 73 0 0 73 0 0 73 0 0 73 0 0 73 0 0 73 0 0 73 0 0 73 0 0 19 192 96 19 197 98 19 199 99 19 198 99 19 197 98 19 194 97 19 191 95 20 189 95 65 231 139 74 236 146 20 178 90 17 170 85 16 164 82 15 159 79 15 153 76 14 146 73 14 140 70 13 133 66 12 125 62 11 117 58 10 109 54 10 101 50 9 91 45 8 82 41 7 71 35 6 60 30 4 47 23 3 32 16 2 25 12 2 25 12 71 0 0 71 0 0 71 0 0 71 0 0 71 0 0 71 0 0 71 0 0 71 0 0 70 0 0 70 0 0 70 0 0 70 0 0 70 0 0 70 0 0 0 0 69 0 0 69 0 0 69 0 0 69 0 0 69 0 0 69 0 0 68 0 0 68 0 0 68 0 0 68 0 0 68 0 0 68 0 0 67 0 0 67 0 0 67 0 0 67 0 0 67 0 0 66 0 0 66 0 0 66 66 0 0 66 0 0 66 0 0 65 0 0 65 0 0 65 0 0 65 0 0 65 0 0 64 0 0
85 0 0 85 0 0 85 0 0 85 0 0 85 0 0 85 0 0 85 0 0 85 0 0 85 0 0 85 0 0
85 0 0 86 0 0 86 0 0 86 0 0 86 0 0 86 0 0 86 0 0 86 0 0 86 0 0 86 0 0 86 0 0 86 0 0 86 0 0 0 0 86 0 0 86 0 0 86 17 175 87 19 191 95 19 195 97 19 196 98 19 195 97 19 193 96 19 191 95 18 188 94 19 185 93 36 199 108 29 188 100 17 172 86 16 166 83 16 161 80 15 155 77 14 149 74 14 143 71 13 136 68 12 129 64 12 122 61 11 114 57 10 106 53 9 97 48 8 88 44 7 79 39 6 68 34 5 57 28 4 44 22 3 30 15 2 25 12 2 25 12 83 0 0 83 0 0 82 0 0 82 0 0 82 0 0 82 0 0 82 0 0 81 0 0 81 0 0 81 0 0 81 0 0 81 0 0 80 0 0 80 0 0 80 0 0 80 0 0 80 0 0 79 0 0 79 0 0 79 0 0 0 0 79 0 0 79 0 0 78 0 0 78 0 0 78 0 0 78 0 0 78 0 0 77 0 0 77 0 0 77 0 0 77 0 0 76 0 0 76 0 0 76 0 0 76 0 0 75 0 0 75 0 0 75 0 0 75 0 0 75 0 0 74 0 0 74 0 0 74
96 0 0 97 0 0 97 0 0 97 0 0 97 0 0 97 0 0 97 0 0 97 0 0 97 0 0 97 0 0
97 0 0 97 0 0 97 0 0 97 0 0 97 0 0 97 0 0 0 0 97 0 0 97 0 0 97 0 0 97 0 0 97 0 0 97 0 0 97 0 0 97 0 0 97 0 0 97 17 178 89 18 189 94 19 192 96 19 192 96 19 191 95 19 190 95 18 187 93 18 184 92 18 180 90 18 177 88 17 172 86 16 167 83 16 162 81 15 157 78 15 151 75 14 145 72 13 139 69 13 132 66 12 125 62 11 118 59 11 110 55 10 102 51 9 94 47 8 85 42 7 75 37 6 65 32 5 54 27 4 41 20 2 28 14 2 25 12 2 25 12 2 25 12 92 0 0 92 0 0 92 0 0 92 0 0 91 0 0 91 0 0 91 0 0 91 0 0 90 0 0 90 0 0 90 0 0 90 0 0 90 0 0 89 0 0 89 0 0 89 0 0 89 0 0 88 0 0 88 0 0 88 0 0 88 0 0 87 0 0 87 0 0 87 0 0 87 0 0 86 0 0 0 0 86 0 0 86 0 0 86 0 0 85 0 0 85 0 0 85 0 0 85 0 0 84 0 0 84 0 0 84 0 0 84 0 0 83 0 0 83 0 0 83 0 0 82 0 0 82
107 0 0 107 0 0 107 0 0 107 0 0 107 0 0 107 0 0 107 0 0 107 0 0 107 0
0 0 0 107 0 0 107 0 0 107 0 0 107 0 0 107 0 0 107 0 0 107 0 0 107 0 0 107 0 0 107 0 0 107 0 0 107 0 0 107 0 0 107 0 0 107 0 0 107 0 0 106 17 176 88 18 185 92 18 188 94 18 188 94 18 187 93 18 185 92 18 183 91 18 180 90 17 176 88 17 172 86 16 168 84 16 163 81 15 158 79 15 153 76 14 147 73 14 141 70 13 135 67 12 128 64 12 121 60 11 114 57 10 106 53 9 98 49 9 90 45 8 81 40 7 71 35 6 61 30 5 50 25 3 38 19 2 25 12 2 25 12 2 25 12 2 25 12 101 0 0 100 0 0 100 0 0 100 0 0 100 0 0 99 0 0 99 0 0 99 0 0 99 0 0 98 0 0 98 0 0 98 0 0 98 0 0 97 0 0 97 0 0 97 0 0 96 0 0 96 0 0 96 0 0 96 0 0 95 0 0 95 0 0 95 0 0 95 0 0 94 0 0 94 0 0 94 0 0 93 0 0 93 0 0 93 0 0 93 0 0 92 0 0 92 0 0 0 0 92 0 0 91 0 0 91 0 0 91 0 0 91 0 0 90 0 0 90 0 0 90 0 0 90
116 0 0 116 0 0 116 0 0 0 0 116 0 0 116 0 0 116 0 0 116 0 0 116 0 0
116 0 0 116 0 0 116 0 0 116 0 0 116 0 0 116 0 0 116 0 0 116 0 0 116 0 0 116 0 0 116 0 0 115 0 0 115 0 0 115 0 0 115 0 0 115 0 0 115 0 0 115 17 172 86 18 180 90 18 183 91 18 184 92 18 183 91 18 181 90 17 178 89 17 175 87 17 172 86 16 168 84 16 163 81 15 159 79 15 153 76 14 148 74 14 143 71 13 137 68 13 130 65 12 124 62 11 117 58 11 110 55 10 102 51 9 94 47 8 86 43 7 77 38 6 67 33 5 57 28 4 46 23 3 34 17 2 25 12 2 25 12 2 25 12 2 25 12 108 0 0 107 0 0 107 0 0 107 0 0 107 0 0 106 0 0 106 0 0 106 0 0 106 0 0 105 0 0 105 0 0 105 0 0 104 0 0 104 0 0 104 0 0 104 0 0 103 0 0 103 0 0 103 0 0 102 0 0 102 0 0 102 0 0 102 0 0 101 0 0 101 0 0 101 0 0 100 0 0 100 0 0 100 0 0 99 0 0 99 0 0 99 0 0 99 0 0 98 0 0 98 0 0 98 0 0 97 0 0 97 0 0 97 0 0 0 0 97 0 0 96 0 0 96
0 0 124 0 0 124 0 0 124 0 0 124 0 0 124 0 0 124 0 0 124 0 0 124 0 0
124 0 0 124 0 0 124 0 0 124 0 0 124 0 0 123 0 0 123 0 0 123 0 0 123 0 0 123 0 0 123 0 0 123 0 0 123 0 0 122 0 0 122 0 0 122 0 0 122 0 0 122 16 167 83 17 175 87 17 178 89 17 178 89 17 178 89 17 176 88 17 173 86 17 170 85 16 167 83 16 163 81 15 158 79 15 154 77 14 149 74 14 143 71 13 138 69 13 132 66 12 126 63 11 119 59 11 112 56 10 105 52 9 97 48 8 89 44 8 81 40 7 72 36 6 62 31 5 52 26 4 41 20 2 29 14 2 25 12 2 25 12 2 25 12 2 25 12 114 0 0 114 0 0 113 0 0 113 0 0 113 0 0 113 0 0 112 0 0 112 0 0 112 0 0 111 0 0 111 0 0 111 0 0 110 0 0 110 0 0 110 0 0 110 0 0 109 0 0 109 0 0 109 0 0 108 0 0 108 0 0 108 0 0 107 0 0 107 0 0 107 0 0 106 0 0 106 0 0 106 0 0 106 0 0 105 0 0 105 0 0 105 0 0 104 0 0 104 0 0 104 0 0 103 0 0 103 0 0 103 0 0 103 0 0 102 0 0 102 0 0 102 0 0
0 0 131 0 0 131 0 0 131 0 0 131 0 0 131 0 0 131 0 0 131 0 0 131 0 0
131 0 0 130 0 0 130 0 0 130 0 0 130 0 0 130 0 0 130 0 0 130 0 0 129 0 0 129 0 0 129 0 0 129 0 0 129 0 0 129 0 0 128 0 0 128 0 0 128 0 0 128 16 160 80 16 169 84 17 172 86 17 173 86 17 172 86 17 170 85 16 168 84 16 165 82 16 161 80 15 157 78 15 153 76 14 149 74 14 144 72 13 138 69 13 133 66 12 127 63 12 121 60 11 114 57 10 107 53 10 100 50 9 92 46 8 84 42 7 76 38 6 67 33 5 57 28 4 47 23 3 36 18 2 25 12 2 25 12 2 25 12 2 25 12 2 25 12 119 0 0 119 0 0 119 0 0 118 0 0 118 0 0 118 0 0 118 0 0 117 0 0 117 0 0 117 0 0 116 0 0 116 0 0 116 0 0 115 0 0 115 0 0 115 0 0 114 0 0 114 0 0 114 0 0 114 0 0 113 0 0 113 0 0 113 0 0 112 0 0 112 0 0 112 0 0 111 0 0 111 0 0 111 0 0 110 0 0 110 0 0 110 0 0 109 0 0 109 0 0 109 0 0 109 0 0 108 0 0 108 0 0 108 0 0 107 0 0 107 0 0 107 0 0
0 0 137 0 0 137 0 0 137 0 0 137 0 0 137 0 0 137 0 0 137 0 0 136 0 0
136 0 0 136 0 0 136 0 0 136 0 0 136 0 0 135 0 0 135 0 0 135 0 0 135 0 0 135 0 0 135 0 0 134 0 0 134 0 0 134 0 0 134 0 0 133 0 0 133 0 0 133 15 152 76 16 162 81 16 166 83 16 167 83 16 166 83 16 164 82 16 162 81 15 159 79 15 156 78 15 152 76 14 148 74 14 143 71 13 138 69 13 133 66 12 127 63 12 121 60 11 115 57 10 109 54 10 102 51 9 95 47 8 87 43 7 79 39 7 70 35 6 61 30 5 52 26 4 42 21 3 30 15 2 25 12 2 25 12 2 25 12 2 25 12 2 25 12 124 0 0 124 0 0 123 0 0 123 0 0 123 0 0 123 0 0 122 0 0 122 0 0 122 0 0 121 0 0 121 0 0 121 0 0 120 0 0 120 0 0 120 0 0 119 0 0 119 0 0 77 154 15 79 158 15 77 155 15 74 148 14 68 137 13 60 121 12 46 93 9 116 0 0 116 0 0 116 0 0 116 0 0 115 0 0 115 0 0 115 0 0 114 0 0 114 0 0 114 0 0 113 0 0 113 0 0 113 0 0 112 0 0 112 0 0 112 0 0 111 0 0 111 0 0
0 0 142 0 0 142 0 0 142 0 0 142 0 0 142 0 0 142 0 0 141 0 0 141 0 0
141 0 0 141 0 0 141 0 0 141 0 0 140 0 0 140 0 0 140 0 0 140 0 0 140 0 0 139 0 0 139 0 0 139 0 0 139 0 0 138 0 0 138 0 0 138 0 0 138 0 0 138 14 140 70 15 154 77 15 159 79 16 160 80 16 160 80 15 158 79 15 156 78 15 153 76 15 150 75 14 146 73 14 142 71 13 137 68 13 132 66 12 127 63 12 121 60 11 116 58 10 109 54 10 103 51 9 96 48 8 89 44 8 81 40 7 73 36 6 65 32 5 56 28 4 46 23 3 35 17 2 25 12 2 25 12 2 25 12 2 25 12 2 25 12 2 25 12 128 0 0 128 0 0 128 0 0 127 0 0 127 0 0 127 0 0 126 0 0 126 0 0 126 0 0 125 0 0 125 0 0 125 0 0 124 0 0 124 0 0 124 0 0 86 172 17 90 180 18 91 182 18 89 179 17 87 174 17 83 167 16 79 158 15 72 145 14 65 130 13 55 110 11 39 78 7 120 0 0 120 0 0 119 0 0 119 0 0 119 0 0 118 0 0 118 0 0 118 0 0 117 0 0 117 0 0 117 0 0 116 0 0 116 0 0 116 0 0 115 0 0 115 0 0
0 0 147 0 0 147 0 0 146 0 0 146 0 0 146 0 0 146 0 0 146 0 0 145 0 0
145 0 0 145 0 0 145 0 0 145 0 0 144 0 0 144 0 0 144 0 0 144 0 0 144 0 0 143 0 0 143 0 0 143 0 0 143 0 0 142 0 0 142 0 0 142 0 0 142 0 0 141 0 0 141 14 145 72 15 151 75 15 152 76 15 152 76 15 151 75 14 149 74 14 147 73 14 143 71 14 140 70 13 135 67 13 131 65 12 126 63 12 121 60 11 115 57 11 110 55 10 103 51 9 97 48 9 90 45 8 83 41 7 75 37 6 67 33 5 58 29 4 49 24 3 39 19 2 29 14 2 25 12 2 25 12 2 25 12 2 25 12 2 25 12 132 0 0 132 0 0 131 0 0 131 0 0 131 0 0 131 0 0 130 0 0 130 0 0 130 0 0 129 0 0 129 0 0 129 0 0 128 0 0 128 0 0 156 151 15 91 183 18 95 191 19 97 194 19 96 193 19 95 190 19 92 184 18 88 177 17 84 168 16 78 156 15 71 143 14 63 127 12 53 107 10 39 79 7 123 0 0 123 0 0 123 0 0 122 0 0 122 0 0 122 0 0 121 0 0 121 0 0 121 0 0 120 0 0 120 0 0 120 0 0 119 0 0 119 0 0 119 0 0
0 0 150 0 0 150 0 0 150 0 0 150 0 0 150 0 0 150 0 0 149 0 0 149 0 0
149 0 0 149 0 0 148 0 0 148 0 0 148 0 0 148 0 0 148 0 0 147 0 0 147 0 0 147 0 0 147 0 0 146 0 0 146 0 0 146 0 0 146 0 0 145 0 0 145 0 0 145 0 0 144 13 134 67 14 142 71 14 144 72 14 145 72 14 144 72 14 142 71 14 140 70 13 136 68 13 133 66 12 129 64 12 124 62 12 120 60 11 114 57 10 109 54 10 103 51 9 97 48 9 90 45 8 83 41 7 76 38 6 68 34 6 60 30 5 52 26 4 42 21 3 32 16 2 25 12 2 25 12 2 25 12 2 25 12 2 25 12 2 25 12 135 0 0 135 0 0 135 0 0 134 0 0 134 0 0 134 0 0 133 0 0 133 0 0 133 0 0 132 0 0 132 0 0 132 0 0 131 0 0 131 0 0 92 185 18 98 196 19 100 200 20 100 201 20 99 199 19 97 195 19 94 189 18 91 182 18 86 173 17 81 162 16 75 150 15 67 135 13 59 118 11 48 97 9 33 67 6 126 0 0 126 0 0 125 0 0 125 0 0 125 0 0 125 0 0 124 0 0 124 0 0 124 0 0 123 0 0 123 0 0 123 0 0 122 0 0 122 0 0
0 0 154 0 0 153 0 0 153 0 0 153 0 0 153 0 0 153 0 0 152 0 0 152 0 0
152 0 0 152 0 0 152 0 0 151 0 0 151 0 0 151 0 0 151 0 0 150 0 0 150 0 0 150 0 0 150 0 0 149 0 0 149 0 0 149 0 0 148 0 0 148 0 0 148 0 0 148 0 0 147 11 118 59 13 131 65 13 135 67 13 136 68 13 136 68 13 134 67 13 132 66 12 129 64 12 126 63 12 122 61 11 117 58 11 113 56 10 107 53 10 102 51 9 96 48 9 90 45 8 83 41 7 76 38 6 69 34 6 61 30 5 53 26 4 44 22 3 35 17 2 25 12 2 25 12 2 25 12 2 25 12 2 25 12 2 25 12 2 25 12 138 0 0 138 0 0 138 0 0 137 0 0 137 0 0 137 0 0 136 0 0 136 0 0 136 0 0 135 0 0 135 0 0 135 0 0 134 0 0 89 179 17 100 220 32 108 255 59 102 204 20 101 203 20 100 201 20 98 196 19 95 191 19 91 183 18 87 175 17 82 165 16 76 153 15 69 139 13 62 124 12 52 105 10 40 81 8 23 46 4 129 0 0 128 0 0 128 0 0 128 0 0 127 0 0 127 0 0 127 0 0 126 0 0 126 0 0 126 0 0 126 0 0 125 0 0 125 0 0
0 0 156 0 0 156 0 0 156 0 0 156 0 0 156 0 0 155 0 0 155 0 0 155 0 0
155 0 0 154 0 0 154 0 0 154 0 0 154 0 0 153 0 0 153 0 0 153 0 0 153 0 0 152 0 0 152 0 0 152 0 0 152 0 0 151 0 0 151 0 0 151 0 0 151 0 0 150 0 0 150 0 0 150 11 118 59 12 125 62 12 127 63 12 127 63 12 126 63 12 124 62 12 121 60 11 118 59 11 114 57 11 110 55 10 105 52 10 100 50 9 95 47 8 89 44 8 83 41 7 76 38 6 69 34 6 62 31 5 54 27 4 45 22 3 36 18 2 27 13 2 25 12 2 25 12 2 25 12 2 25 12 2 25 12 2 25 12 141 0 0 141 0 0 140 0 0 140 0 0 140 0 0 139 0 0 25 0 0 25 0 0 25 0 0 25 0 0 25 0 0 25 0 0 25 0 0 78 157 113 96 213 31 101 223 32 114 255 82 102 204 20 101 203 20 100 200 20 98 196 19 95 190 19 91 183 18 87 174 17 82 165 16 76 153 15 70 140 14 63 126 12 54 108 10 43 87 8 29 59 5 139 25 2 131 0 0 131 0 0 130 0 0 130 0 0 130 0 0 129 0 0 129 0 0 129 0 0 129 0 0 128 0 0 128 0 0 128 0 0
0 0 159 0 0 159 0 0 158 0 0 158 0 0 158 0 0 158 0 0 157 0 0 157 0 0
157 0 0 157 0 0 156 0 0 156 0 0 156 0 0 156 0 0 155 0 0 155 0 0 155 0 0 155 0 0 154 0 0 154 0 0 154 0 0 154 0 0 153 0 0 153 0 0 153 0 0 152 0 0 152 0 0 152 9 98 49 11 112 56 11 116 58 11 117 58 11 117 58 11 115 57 11 113 56 10 109 54 10 106 53 10 102 51 9 97 48 9 92 46 8 87 43 8 81 40 7 75 37 6 68 34 6 61 30 5 53 26 4 45 22 3 37 18 2 28 14 2 25 12 2 25 12 2 25 12 2 25 12 2 25 12 2 25 12 2 25 12 25 0 0 25 0 0 25 0 0 25 0 0 25 0 0 25 0 0 25 0 0 25 0 0 25 0 0 25 0 0 25 0 0 25 0 0 25 0 0 84 169 16 97 214 31 102 236 39 100 201 20 101 202 20 100 201 20 105 204 25 100 197 22 94 188 18 90 181 18 86 172 17 81 163 16 76 152 15 69 139 13 62 125 12 54 108 10 44 89 8 32 64 6 14 28 2 133 0 0 133 0 0 133 0 0 132 0 0 132 0 0 132 0 0 132 0 0 131 0 0 131 0 0 131 0 0 130 0 0 130 0 0
0 0 161 0 0 161 0 0 161 0 0 160 0 0 160 0 0 160 0 0 160 0 0 159 0 0
159 0 0 159 0 0 159 0 0 158 0 0 158 0 0 158 0 0 157 0 0 157 0 0 157 0 0 157 157 126 15 149 119 14 132 106 13 110 88 11 78 62 7 0 0 155 0 0 155 0 0 154 0 0 154 0 0 154 0 0 154 9 95 47 10 103 51 10 106 53 10 106 53 10 105 52 10 103 51 10 100 50 9 97 48 9 93 46 8 88 44 8 83 41 7 78 39 7 72 36 6 66 33 5 59 29 5 52 26 4 45 22 3 37 18 2 28 14 2 25 12 2 25 12 2 25 12 2 25 12 2 25 12 2 25 12 2 25 12 25 0 0 25 0 0 25 0 0 25 0 0 25 0 0 25 0 0 25 0 0 25 0 0 25 0 0 25 0 0 25 0 0 25 0 0 25 0 0 25 0 0 88 196 29 96 212 31 102 248 46 99 198 19 99 199 19 98 197 19 128 225 50 103 198 27 92 184 18 88 177 17 84 169 16 79 159 15 74 149 14 68 136 13 61 122 12 53 106 10 44 88 8 32 65 6 16 33 3 136 0 0 135 0 0 135 0 0 135 0 0 134 0 0 134 0 0 134 0 0 133 0 0 133 0 0 133 0 0 133 0 0 132 0 0
0 0 163 0 0 163 0 0 162 0 0 162 0 0 162 0 0 162 0 0 161 0 0 161 0 0
161 0 0 161 0 0 160 0 0 160 0 0 160 0 0 160 0 0 159 0 0 159 187 150 18 185 148 18 175 140 17 160 128 16 143 114 14 122 98 12 99 79 9 69 55 6 25 20 2 0 0 156 0 0 156 0 0 156 0 0 155 0 0 155 8 86 43 9 92 46 9 94 47 9 94 47 9 93 46 9 90 45 8 87 43 8 83 41 7 79 39 7 74 37 6 69 34 6 63 31 5 57 28 5 50 25 4 43 21 3 35 17 2 27 13 2 25 12 2 25 12 2 25 12 2 25 12 2 25 12 2 25 12 2 25 12 25 0 0 25 0 0 25 0 0 25 0 0 25 0 0 25 0 0 25 0 0 25 0 0 25 0 0 25 0 0 25 0 0 25 0 0 25 0 0 25 0 0 25 0 0 86 193 29 93 208 31 101 255 52 96 193 19 96 193 19 96 192 19 94 189 18 92 184 18 89 179 17 86 172 17 82 164 16 77 154 15 72 144 14 66 132 13 59 118 11 51 102 10 42 84 8 31 62 6 16 33 3 138 0 0 137 0 0 137 0 0 137 0 0 136 0 0 136 0 0 136 0 0 136 0 0 135 0 0 135 0 0 135 0 0 134 0 0
0 0 164 0 0 164 0 0 164 0 0 164 0 0 163 0 0 163 0 0 163 0 0 163 0 0
162 0 0 162 0 0 162 0 0 162 0 0 161 0 0 161 0 0 161 199 159 19 198 158 19 189 151 18 176 141 17 161 128 16 143 114 14 123 98 12 101 80 10 75 60 7 43 35 4 25 20 2 0 0 158 0 0 157 0 0 157 0 0 157 0 0 156 7 74 37 8 80 40 8 81 40 8 81 40 7 79 39 7 76 38 7 72 36 6 68 34 6 64 32 5 58 29 5 53 26 4 46 23 4 40 20 3 32 16 2 25 12 2 25 12 2 25 12 2 25 12 2 25 12 2 25 12 2 25 12 2 25 12 25 0 0 25 0 0 25 0 0 25 0 0 25 0 0 25 0 0 25 0 0 25 0 0 25 0 0 25 0 0 25 0 0 25 0 0 25 0 0 25 0 0 25 0 0 25 0 0 82 185 28 90 200 30 91 182 195 182 255 27 93 186 18 92 185 18 91 182 18 89 178 17 86 172 17 82 165 16 78 157 15 74 148 14 69 138 13 63 126 12 56 112 11 48 97 9 39 79 7 71 57 5 135 29 2 150 25 2 139 0 0 139 0 0 139 0 0 138 0 0 138 0 0 138 0 0 137 0 0 137 0 0 137 0 0 137 0 0 136 0 0
0 0 166 0 0 166 0 0 165 0 0 165 0 0 165 0 0 165 0 0 164 0 0 164 0 0
164 0 0 164 0 0 163 0 0 163 0 0 163 0 0 162 200 160 20 203 163 20 197 157 19 186 149 18 172 138 17 157 125 15 139 111 13 119 95 11 97 78 9 73 58 7 44 35 4 25 20 2 0 0 159 0 0 159 0 0 158 0 0 158 0 0 158 0 0 158 5 59 29 6 65 32 6 66 33 6 65 32 6 63 31 6 60 30 5 56 28 5 52 26 4 47 23 4 41 20 3 35 17 2 28 14 2 25 12 2 25 12 2 25 12 2 25 12 2 25 12 2 25 12 2 25 12 2 25 12 25 0 0 25 0 0 25 0 0 25 0 0 25 0 0 25 0 0 25 0 0 25 0 0 25 0 0 25 0 0 25 0 0 25 0 0 25 0 0 25 0 0 25 0 0 25 0 0 25 0 0 100 149 14 82 165 42 86 173 42 88 177 188 89 178 195 88 177 205 87 174 218 85 170 234 82 164 237 78 157 193 74 149 136 167 140 14 65 130 113 59 118 127 52 105 137 177 89 8 171 71 7 161 49 4 151 25 2 153 25 2 141 0 0 141 0 0 140 0 0 140 0 0 140 0 0 139 0 0 139 0 0 139 0 0 139 0 0 138 0 0 138 0 0
0 0 167 0 0 167 0 0 167 0 0 166 0 0 166 0 0 166 0 0 166 0 0 165 0 0
165 0 0 165 0 0 164 0 0 164 0 0 164 0 0 164 203 162 20 200 160 20 191 153 19 193 157 31 166 132 16 150 120 15 132 106 13 112 90 11 91 73 9 67 53 6 39 31 3 25 20 2 25 20 2 0 0 160 0 0 160 0 0 159 0 0 159 0 0 159 0 0 159 3 38 19 4 47 23 4 49 24 4 48 24 4 46 23 4 43 21 3 38 19 3 33 16 2 28 14 2 25 12 2 25 12 2 25 12 2 25 12 2 25 12 2 25 12 2 25 12 2 25 12 2 25 12 25 0 0 25 0 0 25 0 0 25 0 0 25 0 0 25 0 0 25 0 0 25 0 0 25 0 0 25 0 0 25 0 0 25 0 0 25 0 0 25 0 0 25 0 0 25 0 0 25 0 0 25 0 0 92 133 13 234 152 15 241 162 16 83 166 179 83 167 181 83 167 182 249 164 16 248 160 16 245 155 15 241 148 14 235 140 14 228 131 13 220 121 12 211 109 10 201 95 9 190 80 8 179 62 6 166 40 4 157 25 2 143 0 0 142 0 0 142 0 0 142 0 0 142 0 0 141 0 0 141 0 0 141 0 0 140 0 0 140 0 0 140 0 0 140 0 0
0 0 168 0 0 168 0 0 168 0 0 167 0 0 167 0 0 167 0 0 167 0 0 166 0 0
166 0 0 166 0 0 166 0 0 165 0 0 165 188 151 18 197 158 19 192 154 19 183 146 18 174 139 19 157 125 15 141 113 14 123 98 12 103 83 10 82 65 8 58 46 5 31 25 3 25 20 2 25 20 2 0 0 161 0 0 161 0 0 160 0 0 160 0 0 160 0 0 160 0 0 159 0 0 159 2 25 12 2 27 13 2 27 13 2 25 12 2 25 12 2 25 12 2 25 12 2 25 12 2 25 12 2 25 12 2 25 12 2 25 12 2 25 12 2 25 12 0 0 25 25 0 0 25 0 0 25 0 0 25 0 0 25 0 0 25 0 0 25 0 0 25 0 0 25 0 0 25 0 0 25 0 0 25 0 0 25 0 0 25 0 0 25 0 0 25 0 0 25 0 0 25 0 0 150 0 0 208 109 10 225 136 13 232 148 14 236 153 15 238 155 15 239 155 15 238 153 15 236 149 14 233 144 14 230 137 13 225 130 13 219 121 12 212 110 11 205 98 9 196 85 8 187 69 6 175 50 5 162 27 2 159 25 2 25 0 0 25 0 0 144 0 0 143 0 0 143 0 0 143 0 0 142 0 0 142 0 0 142 0 0 142 0 0 141 0 0 141 0 0
0 0 169 0 0 169 0 0 169 0 0 168 0 0 168 0 0 168 0 0 168 0 0 167 0 0
167 0 0 167 0 0 167 0 0 166 0 0 166 184 147 18 188 150 18 182 146 18 172 138 17 160 128 16 146 117 14 130 104 13 112 90 11 93 74 9 71 57 7 47 38 4 25 20 2 25 20 2 25 20 2 0 0 162 0 0 162 0 0 162 0 0 161 0 0 161 0 0 161 0 0 160 0 0 160 0 0 160 0 0 160 0 0 25 2 25 12 2 25 12 2 25 12 2 25 12 2 25 12 2 25 12 2 25 12 2 25 12 0 0 25 0 0 25 0 0 25 0 0 25 25 0 0 25 0 0 25 0 0 25 0 0 25 0 0 25 0 0 25 0 0 25 0 0 25 0 0 25 0 0 25 0 0 25 0 0 25 0 0 152 0 0 152 0 0 152 0 0 151 0 0 151 0 0 151 0 0 151 0 0 213 115 11 222 131 13 227 138 13 229 141 14 230 141 14 229 140 14 227 136 13 225 131 13 221 125 12 217 117 11 211 108 10 205 98 9 198 86 8 190 72 7 180 55 5 169 36 3 162 25 2 38 25 2 25 0 0 25 0 0 25 0 0 25 0 0 25 0 0 25 0 0 25 0 0 144 0 0 143 0 0 143 0 0 143 0 0 142 0 0
0 0 170 0 0 170 0 0 169 0 0 169 0 0 169 0 0 169 0 0 168 0 0 168 0 0
168 0 0 168 0 0 167 0 0 167 0 0 167 171 137 17 175 140 17 170 136 17 160 128 16 148 118 14 133 107 13 117 94 11 99 79 9 80 64 8 58 46 5 34 27 3 25 20 2 25 20 2 25 20 2 0 0 163 0 0 163 0 0 162 0 0 162 0 0 162 0 0 162 0 0 161 0 0 161 0 0 161 0 0 161 0 0 160 0 0 25 0 0 25 0 0 25 0 0 25 0 0 25 0 0 25 0 0 25 0 0 25 0 0 25 0 0 25 0 0 25 0 0 25 25 0 0 25 0 0 25 0 0 25 0 0 25 0 0 25 0 0 25 0 0 25 0 0 155 0 0 154 0 0 154 0 0 154 0 0 154 0 0 153 0 0 153 0 0 153 0 0 153 0 0 152 0 0 152 0 0 152 0 0 194 79 7 210 108 10 217 119 11 220 124 12 221 125 12 220 124 12 219 122 12 216 117 11 213 111 11 209 103 10 203 94 9 197 83 8 190 71 7 182 56 5 172 39 3 164 25 2 163 25 2 25 0 0 25 0 0 25 0 0 25 0 0 25 0 0 25 0 0 25 0 0 25 0 0 25 0 0 25 0 0 144 0 0 144 0 0 144 0 0
0 0 171 0 0 170 0 0 170 0 0 170 0 0 170 0 0 169 0 0 169 0 0 169 0 0
169 0 0 168 0 0 168 0 0 168 0 0 168 153 122 15 160 128 16 155 124 15 145 116 14 133 106 13 119 95 11 103 82 10 85 68 8 65 52 6 43 34 4 25 20 2 25 20 2 25 20 2 25 20 2 0 0 164 0 0 164 0 0 163 0 0 163 0 0 163 0 0 163 0 0 25 0 0 162 0 0 162 0 0 161 0 0 161 0 0 161 0 0 161 0 0 160 0 0 160 0 0 160 0 0 160 0 0 159 0 0 159 0 0 159 0 0 159 0 0 158 0 0 158 158 0 0 158 0 0 157 0 0 157 0 0 157 0 0 156 0 0 156 0 0 156 0 0 156 0 0 155 0 0 155 0 0 155 0 0 155 0 0 154 0 0 154 0 0 154 0 0 154 0 0 153 0 0 153 0 0 153 0 0 152 0 0 192 74 7 203 95 9 208 103 10 210 106 10 210 106 10 209 104 10 207 100 10 204 94 9 199 87 8 194 77 7 188 66 6 181 53 5 173 38 3 165 25 2 164 25 2 38 25 2 25 0 0 25 0 0 25 0 0 25 0 0 25 0 0 25 0 0 25 0 0 25 0 0 25 0 0 25 0 0 146 0 0 145 0 0 145 0 0
0 0 171 0 0 171 0 0 171 0 0 171 0 0 170 0 0 170 0 0 170 0 0 170 0 0
169 0 0 169 0 0 169 0 0 169 0 0 168 0 0 168 140 112 14 137 110 13 128 103 12 117 93 11 102 82 10 86 69 8 68 54 6 48 38 4 26 21 2 25 20 2 25 20 2 25 20 2 0 0 25 0 0 25 0 0 25 0 0 25 0 0 25 0 0 25 0 0 25 0 0 25 0 0 25 0 0 25 0 0 25 0 0 162 0 0 162 0 0 162 0 0 161 0 0 161 0 0 161 0 0 160 0 0 160 0 0 160 0 0 160 0 0 159 0 0 159 0 0 159 159 0 0 158 0 0 158 0 0 158 0 0 158 0 0 157 0 0 157 0 0 157 0 0 157 0 0 156 0 0 156 0 0 156 0 0 156 0 0 155 0 0 155 0 0 155 0 0 155 0 0 154 0 0 154 0 0 154 0 0 153 0 0 153 0 0 183 55 5 193 75 7 197 82 8 198 84 8 198 83 8 196 79 7 193 74 7 189 67 6 184 57 5 178 46 4 170 31 3 166 25 2 165 25 2 38 25 2 25 0 0 25 0 0 25 0 0 25 0 0 25 0 0 25 0 0 25 0 0 25 0 0 25 0 0 25 0 0 25 0 0 147 0 0 146 0 0 146 0 0
0 0 172 0 0 172 0 0 172 0 0 171 0 0 171 0 0 171 0 0 171 0 0 170 0 0
170 0 0 170 0 0 170 0 0 169 0 0 169 0 0 169 114 91 11 115 92 11 108 87 10 97 78 9 83 67 8 67 54 6 49 39 4 29 23 2 25 20 2 25 20 2 25 20 2 25 20 2 0 0 25 0 0 25 0 0 25 0 0 25 0 0 25 0 0 25 0 0 25 0 0 25 0 0 25 0 0 25 0 0 163 0 0 163 0 0 163 0 0 162 0 0 162 0 0 162 0 0 162 0 0 161 0 0 161 0 0 161 0 0 161 0 0 160 0 0 160 0 0 160 159 0 0 159 0 0 159 0 0 159 0 0 158 0 0 158 0 0 158 0 0 158 0 0 157 0 0 157 0 0 157 0 0 157 0 0 156 0 0 156 0 0 156 0 0 156 0 0 155 0 0 155 0 0 155 0 0 155 0 0 154 0 0 154 0 0 154 0 0 154 0 0 178 46 4 182 54 5 183 55 5 182 53 5 180 49 4 176 41 4 170 31 3 167 25 2 166 25 2 38 25 2 25 0 0 25 0 0 25 0 0 25 0 0 25 0 0 25 0 0 25 0 0 25 0 0 25 0 0 25 0 0 25 0 0 148 0 0 148 0 0 148 0 0 147 0 0 147 0 0
0 0 173 0 0 172 0 0 172 0 0 172 0 0 172 0 0 171 0 0 171 0 0 171 0 0
171 0 0 170 0 0 170 0 0 170 0 0 170 0 0 169 0 0 169 86 69 8 83 67 8 74 59 7 61 48 6 45 36 4 26 21 2 25 20 2 25 20 2 25 20 2 25 20 2 0 0 25 0 0 25 0 0 25 0 0 25 0 0 25 0 0 25 0 0 25 0 0 25 0 0 25 0 0 164 0 0 164 0 0 164 0 0 163 0 0 163 0 0 163 0 0 163 0 0 162 0 0 162 0 0 162 0 0 162 0 0 161 0 0 161 0 0 161 0 0 161 0 0 160 160 0 0 160 0 0 160 0 0 159 0 0 159 0 0 159 0 0 159 0 0 158 0 0 158 0 0 158 0 0 158 0 0 157 0 0 157 0 0 157 0 0 157 0 0 157 0 0 156 0 0 156 0 0 156 0 0 156 0 0 155 0 0 155 0 0 155 0 0 155 0 0 154 0 0 25 0 0 167 25 2 167 25 2 167 25 2 167 25 2 167 25 2 38 25 2 25 0 0 25 0 0 25 0 0 25 0 0 25 0 0 25 0 0 25 0 0 25 0 0 25 0 0 25 0 0 25 0 0 150 0 0 149 0 0 149 0 0 149 0 0 149 0 0 148 0 0 148 0 0
0 0 173 0 0 173 0 0 173 0 0 172 0 0 172 0 0 172 0 0 172 0 0 171 0 0
171 0 0 171 0 0 171 0 0 170 0 0 170 0 0 170 0 0 170 0 0 169 44 35 4 42 34 4 31 25 3 25 20 2 25 20 2 25 20 2 25 20 2 0 0 25 0 0 25 0 0 25 0 0 25 0 0 25 0 0 25 0 0 25 0 0 25 0 0 166 0 0 165 0 0 165 0 0 165 0 0 165 0 0 164 0 0 164 0 0 164 0 0 164 0 0 163 0 0 163 0 0 163 0 0 163 0 0 162 0 0 162 0 0 162 0 0 162 0 0 161 0 0 161 161 0 0 161 0 0 160 0 0 160 0 0 160 0 0 160 0 0 159 0 0 159 0 0 159 0 0 159 0 0 159 0 0 158 0 0 158 0 0 158 0 0 158 0 0 157 0 0 157 0 0 157 0 0 157 0 0 156 0 0 156 0 0 156 0 0 156 0 0 155 0 0 155 0 0 155 0 0 155 0 0 154 0 0 25 0 0 25 0 0 25 0 0 25 0 0 25 0 0 25 0 0 25 0 0 25 0 0 25 0 0 25 0 0 152 0 0 152 0 0 151 0 0 151 0 0 151 0 0 151 0 0 150 0 0 150 0 0 150 0 0 150 0 0 149 0 0 149 0 0
0 0 174 0 0 173 0 0 173 0 0 173 0 0 173 0 0 172 0 0 172 0 0 172 0 0
172 0 0 171 0 0 171 0 0 171 0 0 171 0 0 170 0 0 170 0 0 170 0 0 170 0 0 170 0 0 25 0 0 25 0 0 25 0 0 25 0 0 25 0 0 25 0 0 25 0 0 25 0 0 25 0 0 167 0 0 167 0 0 167 0 0 166 0 0 166 0 0 166 0 0 166 0 0 165 0 0 165 0 0 165 0 0 165 0 0 164 0 0 164 0 0 164 0 0 164 0 0 164 0 0 163 0 0 163 0 0 163 0 0 163 0 0 162 0 0 162 0 0 162 162 0 0 161 0 0 161 0 0 161 0 0 161 0 0 160 0 0 160 0 0 160 0 0 160 0 0 159 0 0 159 0 0 159 0 0 159 0 0 158 0 0 158 0 0 158 0 0 158 0 0 158 0 0 157 0 0 157 0 0 157 0 0 157 0 0 156 0 0 156 0 0 156 0 0 156 0 0 155 0 0 155 0 0 155 0 0 155 0 0 154 0 0 154 0 0 154 0 0 154 0 0 154 0 0 153 0 0 153 0 0 153 0 0 153 0 0 152 0 0 152 0 0 152 0 0 152 0 0 151 0 0 151 0 0 151 0 0 151 0 0 151 0 0 150 0 0 150 0 0
0 0 174 0 0 174 0 0 173 0 0 173 0 0 173 0 0 173 0 0 173 0 0 172 0 0
172 0 0 172 0 0 172 0 0 171 0 0 171 0 0 171 0 0 171 0 0 170 0 0 170 0 0 170 0 0 170 0 0 170 0 0 169 0 0 169 0 0 169 0 0 169 0 0 168 0 0 168 0 0 168 0 0 168 0 0 167 0 0 167 0 0 167 0 0 167 0 0 166 0 0 166 0 0 166 0 0 166 0 0 166 0 0 165 0 0 165 0 0 165 0 0 165 0 0 164 0 0 164 0 0 164 0 0 164 0 0 163 0 0 163 0 0 163 0 0 163 0 0 162 162 0 0 162 0 0 162 0 0 162 0 0 161 0 0 161 0 0 161 0 0 161 0 0 160 0 0 160 0 0 160 0 0 160 0 0 159 0 0 159 0 0 159 0 0 159 0 0 158 0 0 158 0 0 158 0 0 158 0 0 158 0 0 157 0 0 157 0 0 157 0 0 157 0 0 156 0 0 156 0 0 156 0 0 156 0 0 155 0 0 155 0 0 155 0 0 155 0 0 155 0 0 154 0 0 154 0 0 154 0 0 154 0 0 153 0 0 153 0 0 153 0 0 153 0 0 152 0 0 152 0 0 152 0 0 152 0 0 152 0 0 151 0 0 151 0 0 151 0 0
0 0 174 0 0 174 0 0 174 0 0 174 0 0 173 0 0 173 0 0 173 0 0 173 0 0
173 0 0 172 0 0 172 0 0 172 0 0 172 0 0 171 0 0 171 0 0 171 0 0 171 0 0 170 0 0 170 0 0 170 0 0 170 0 0 170 0 0 169 0 0 169 0 0 169 0 0 169 0 0 168 0 0 168 0 0 168 0 0 168 0 0 167 0 0 167 0 0 167 0 0 167 0 0 167 0 0 166 0 0 166 0 0 166 0 0 166 0 0 165 0 0 165 0 0 165 0 0 165 0 0 164 0 0 164 0 0 164 0 0 164 0 0 163 0 0 163 0 0 163 163 0 0 163 0 0 162 0 0 162 0 0 162 0 0 162 0 0 161 0 0 161 0 0 161 0 0 161 0 0 160 0 0 160 0 0 160 0 0 160 0 0 160 0 0 159 0 0 159 0 0 159 0 0 159 0 0 158 0 0 158 0 0 158 0 0 158 0 0 158 0 0 157 0 0 157 0 0 157 0 0 157 0 0 156 0 0 156 0 0 156 0 0 156 0 0 155 0 0 155 0 0 155 0 0 155 0 0 155 0 0 154 0 0 154 0 0 154 0 0 154 0 0 153 0 0 153 0 0 153 0 0 153 0 0 153 0 0 152 0 0 152 0 0 152 0 0 152 0 0
0 0 175 0 0 174 0 0 174 0 0 174 0 0 174 0 0 174 0 0 173 0 0 173 0 0
173 0 0 173 0 0 172 0 0 172 0 0 172 0 0 172 0 0 172 0 0 171 0 0 171 0 0 171 0 0 171 0 0 170 0 0 170 0 0 170 0 0 170 0 0 169 0 0 169 0 0 169 0 0 169 0 0 169 0 0 168 0 0 168 0 0 168 0 0 168 0 0 167 0 0 167 0 0 167 0 0 167 0 0 167 0 0 166 0 0 166 0 0 166 0 0 166 0 0 165 0 0 165 0 0 165 0 0 165 0 0 164 0 0 164 0 0 164 0 0 164 0 0 164 163 0 0 163 0 0 163 0 0 163 0 0 162 0 0 162 0 0 162 0 0 162 0 0 162 0 0 161 0 0 161 0 0 161 0 0 161 0 0 160 0 0 160 0 0 160 0 0 160 0 0 160 0 0 159 0 0 159 0 0 159 0 0 159 0 0 158 0 0 158 0 0 158 0 0 158 0 0 157 0 0 157 0 0 157 0 0 157 0 0 157 0 0 156 0 0 156 0 0 156 0 0 156 0 0 155 0 0 155 0 0 155 0 0 155 0 0 155 0 0 154 0 0 154 0 0 154 0 0 154 0 0 154 0 0 153 0 0 153 0 0 153 0 0 153 0 0 152 0 0

